<?xml version="1.0" encoding="UTF-8" standalone="no"?>
<!-- Created with Inkscape (http://www.inkscape.org/) -->

<svg
   xmlns:dc="http://purl.org/dc/elements/1.1/"
   xmlns:cc="http://creativecommons.org/ns#"
   xmlns:rdf="http://www.w3.org/1999/02/22-rdf-syntax-ns#"
   xmlns:svg="http://www.w3.org/2000/svg"
   xmlns="http://www.w3.org/2000/svg"
   xmlns:xlink="http://www.w3.org/1999/xlink"
   xmlns:sodipodi="http://sodipodi.sourceforge.net/DTD/sodipodi-0.dtd"
   xmlns:inkscape="http://www.inkscape.org/namespaces/inkscape"
   width="80.010674mm"
   height="72.87429mm"
   viewBox="0 0 80.010673 72.874292"
   version="1.1"
   id="svg6582"
   inkscape:version="0.92.2 5c3e80d, 2017-08-06"
   sodipodi:docname="hetero.svg">
  <defs
     id="defs6576">
    <clipPath
       id="clipPath4625-8-9"
       clipPathUnits="userSpaceOnUse">
      <path
         inkscape:connector-curvature="0"
         id="path4623-7-3"
         d="M 598.816,0 C 560.77,0 522.547,13.2305 491.613,40.1953 443.891,81.793 426.332,145 440.535,202.496 c 0,0 -23.851,70.094 -68.844,98.945 -44.98,28.848 -120.203,56.598 -120.203,56.598 l -0.402,0.07 c -18.602,-9.636 -38.957,-14.504 -59.352,-14.504 -30.156,0 -60.398,10.641 -85.164,32.231 -54.2419,47.281 -59.8825,129.582 -12.6012,183.824 8.8362,10.133 19.1722,18 30.0512,24.711 7.668,19.559 33.867,90.074 30.855,134.063 -3.281,47.863 -46.293,132.539 -52.266,144.101 -19.3629,5.535 -37.8707,15.153 -54.0504,29.258 -58.9531,51.387 -65.082,140.827 -13.6992,199.777 28,32.12 67.2926,48.56 106.8006,48.56 33,0 66.156,-11.48 92.988,-34.86 8.161,-7.11 15.2,-15.01 21.321,-23.39 27.539,4.66 89.539,16.67 120.265,34.76 31.016,18.26 80.664,68.73 101.774,90.88 2.902,37.24 17.172,73.91 43.601,104.23 35.621,40.86 85.614,61.78 135.875,61.78 41.989,0 84.161,-14.6 118.293,-44.35 55.977,-48.8 74.477,-124.56 53.102,-191.04 11.246,-18.37 43.418,-67.64 78.871,-91.96 44.066,-30.23 97.27,-32.68 97.27,-32.68 22.03,14.43 47.19,21.67 72.48,21.67 31.48,0 63.14,-11.24 89.08,-33.85 56.36,-49.129 62.23,-134.648 13.09,-191.007 -9.81,-11.258 -32.01,-26.918 -32.01,-26.918 0,0 -40.21,-96.118 -35.96,-158.157 4.25,-62.023 39.08,-126.519 39.08,-126.519 46.87,-40.867 51.74,-111.977 10.89,-158.852 -22.15,-25.402 -53.08,-38.301 -84.26,-38.301 -23.26,0 -46.65,7.188 -66.59,21.723 C 987.531,318.691 915.793,303.543 873.641,283.605 822.816,259.57 759.762,190.789 759.762,190.789 h -0.016 C 767.707,144.145 755.461,94.4375 721.938,55.9844 689.66,18.9531 644.363,0 598.816,0 m 0.192,326.477 c 38.027,0 76.222,-13.215 107.144,-40.172 9.813,-8.559 17.965,-17.539 25.219,-27.684 0,0 99.016,15.746 141.711,41.477 36.555,22.027 85.504,62.785 98.863,74.097 -14.132,37.528 -8.23,81.285 19.965,113.633 13.29,15.231 28.96,25.731 46.77,31.969 0,0 57.22,52.613 53.7,104.058 -3.53,51.434 -54.99,144.102 -54.99,144.102 0,0 -32.44,14.297 -50.062,30.981 -70.461,67.062 -35.414,152.914 -35.672,160.296 -0.301,1.297 -24.101,43.466 -55.461,71.136 -30.203,26.66 -114.113,27.15 -120.25,27.15 -0.234,0 -0.355,0 -0.355,0 l 0.137,0.25 c -33.657,-29.43 -76.055,-44.46 -118.641,-44.46 -41.895,0 -83.973,14.56 -118.055,44.27 -19.797,17.26 -34.769,37.94 -45.093,60.33 -3.196,0.08 -6.938,0.14 -11.125,0.14 -27.516,0 -73.891,-2.44 -105.786,-17.03 -35.797,-16.37 -77.66,-56.25 -96.574,-75.39 8.047,-41.388 -2.262,-85.9 -32.113,-120.146 -11.59,-13.293 -25.172,-23.75 -39.84,-31.617 -7.516,-18.906 -38.035,-99.59 -34.305,-154.039 3.25,-47.348 24.258,-96.039 34.047,-116.48 24.914,-3.067 49.207,-13.36 69.551,-31.086 49.527,-43.188 58.012,-115.332 23.195,-168.879 10.383,-12.207 53.594,-62.445 81.758,-85.789 26.172,-21.676 84.418,-31.563 105.332,-34.504 31,28.723 70.871,43.387 110.93,43.387" />
    </clipPath>
    <clipPath
       id="clipPath4625-8-4-2"
       clipPathUnits="userSpaceOnUse">
      <path
         inkscape:connector-curvature="0"
         id="path4623-7-0-3"
         d="M 598.816,0 C 560.77,0 522.547,13.2305 491.613,40.1953 443.891,81.793 426.332,145 440.535,202.496 c 0,0 -23.851,70.094 -68.844,98.945 -44.98,28.848 -120.203,56.598 -120.203,56.598 l -0.402,0.07 c -18.602,-9.636 -38.957,-14.504 -59.352,-14.504 -30.156,0 -60.398,10.641 -85.164,32.231 -54.2419,47.281 -59.8825,129.582 -12.6012,183.824 8.8362,10.133 19.1722,18 30.0512,24.711 7.668,19.559 33.867,90.074 30.855,134.063 -3.281,47.863 -46.293,132.539 -52.266,144.101 -19.3629,5.535 -37.8707,15.153 -54.0504,29.258 -58.9531,51.387 -65.082,140.827 -13.6992,199.777 28,32.12 67.2926,48.56 106.8006,48.56 33,0 66.156,-11.48 92.988,-34.86 8.161,-7.11 15.2,-15.01 21.321,-23.39 27.539,4.66 89.539,16.67 120.265,34.76 31.016,18.26 80.664,68.73 101.774,90.88 2.902,37.24 17.172,73.91 43.601,104.23 35.621,40.86 85.614,61.78 135.875,61.78 41.989,0 84.161,-14.6 118.293,-44.35 55.977,-48.8 74.477,-124.56 53.102,-191.04 11.246,-18.37 43.418,-67.64 78.871,-91.96 44.066,-30.23 97.27,-32.68 97.27,-32.68 22.03,14.43 47.19,21.67 72.48,21.67 31.48,0 63.14,-11.24 89.08,-33.85 56.36,-49.129 62.23,-134.648 13.09,-191.007 -9.81,-11.258 -32.01,-26.918 -32.01,-26.918 0,0 -40.21,-96.118 -35.96,-158.157 4.25,-62.023 39.08,-126.519 39.08,-126.519 46.87,-40.867 51.74,-111.977 10.89,-158.852 -22.15,-25.402 -53.08,-38.301 -84.26,-38.301 -23.26,0 -46.65,7.188 -66.59,21.723 C 987.531,318.691 915.793,303.543 873.641,283.605 822.816,259.57 759.762,190.789 759.762,190.789 h -0.016 C 767.707,144.145 755.461,94.4375 721.938,55.9844 689.66,18.9531 644.363,0 598.816,0 m 0.192,326.477 c 38.027,0 76.222,-13.215 107.144,-40.172 9.813,-8.559 17.965,-17.539 25.219,-27.684 0,0 99.016,15.746 141.711,41.477 36.555,22.027 85.504,62.785 98.863,74.097 -14.132,37.528 -8.23,81.285 19.965,113.633 13.29,15.231 28.96,25.731 46.77,31.969 0,0 57.22,52.613 53.7,104.058 -3.53,51.434 -54.99,144.102 -54.99,144.102 0,0 -32.44,14.297 -50.062,30.981 -70.461,67.062 -35.414,152.914 -35.672,160.296 -0.301,1.297 -24.101,43.466 -55.461,71.136 -30.203,26.66 -114.113,27.15 -120.25,27.15 -0.234,0 -0.355,0 -0.355,0 l 0.137,0.25 c -33.657,-29.43 -76.055,-44.46 -118.641,-44.46 -41.895,0 -83.973,14.56 -118.055,44.27 -19.797,17.26 -34.769,37.94 -45.093,60.33 -3.196,0.08 -6.938,0.14 -11.125,0.14 -27.516,0 -73.891,-2.44 -105.786,-17.03 -35.797,-16.37 -77.66,-56.25 -96.574,-75.39 8.047,-41.388 -2.262,-85.9 -32.113,-120.146 -11.59,-13.293 -25.172,-23.75 -39.84,-31.617 -7.516,-18.906 -38.035,-99.59 -34.305,-154.039 3.25,-47.348 24.258,-96.039 34.047,-116.48 24.914,-3.067 49.207,-13.36 69.551,-31.086 49.527,-43.188 58.012,-115.332 23.195,-168.879 10.383,-12.207 53.594,-62.445 81.758,-85.789 26.172,-21.676 84.418,-31.563 105.332,-34.504 31,28.723 70.871,43.387 110.93,43.387" />
    </clipPath>
    <clipPath
       id="clipPath4912-7-0"
       clipPathUnits="userSpaceOnUse">
      <path
         inkscape:connector-curvature="0"
         id="path4910-7-4"
         d="M 598.816,0 C 560.77,0 522.547,13.2305 491.613,40.1953 443.891,81.793 426.332,145 440.535,202.496 c 0,0 -23.851,70.094 -68.844,98.945 -44.98,28.848 -120.203,56.598 -120.203,56.598 l -0.402,0.07 c -18.602,-9.636 -38.957,-14.504 -59.352,-14.504 -30.156,0 -60.398,10.641 -85.164,32.231 -54.2419,47.281 -59.8825,129.582 -12.6012,183.824 8.8362,10.133 19.1722,18 30.0512,24.711 7.668,19.559 33.867,90.074 30.855,134.063 -3.281,47.863 -46.293,132.539 -52.266,144.101 -19.3629,5.535 -37.8707,15.153 -54.0504,29.258 -58.9531,51.387 -65.082,140.827 -13.6992,199.777 28,32.12 67.2926,48.56 106.8006,48.56 33,0 66.156,-11.48 92.988,-34.86 8.161,-7.11 15.2,-15.01 21.321,-23.39 27.539,4.66 89.539,16.67 120.265,34.76 31.016,18.26 80.664,68.73 101.774,90.88 2.902,37.24 17.172,73.91 43.601,104.23 35.621,40.86 85.614,61.78 135.875,61.78 41.989,0 84.161,-14.6 118.293,-44.35 55.977,-48.8 74.477,-124.56 53.102,-191.04 11.246,-18.37 43.418,-67.64 78.871,-91.96 44.066,-30.23 97.27,-32.68 97.27,-32.68 22.03,14.43 47.19,21.67 72.48,21.67 31.48,0 63.14,-11.24 89.08,-33.85 56.36,-49.129 62.23,-134.648 13.09,-191.007 -9.81,-11.258 -32.01,-26.918 -32.01,-26.918 0,0 -40.21,-96.118 -35.96,-158.157 4.25,-62.023 39.08,-126.519 39.08,-126.519 46.87,-40.867 51.74,-111.977 10.89,-158.852 -22.15,-25.402 -53.08,-38.301 -84.26,-38.301 -23.26,0 -46.65,7.188 -66.59,21.723 C 987.531,318.691 915.793,303.543 873.641,283.605 822.816,259.57 759.762,190.789 759.762,190.789 h -0.016 C 767.707,144.145 755.461,94.4375 721.938,55.9844 689.66,18.9531 644.363,0 598.816,0 m 0.192,326.477 c 38.027,0 76.222,-13.215 107.144,-40.172 9.813,-8.559 17.965,-17.539 25.219,-27.684 0,0 99.016,15.746 141.711,41.477 36.555,22.027 85.504,62.785 98.863,74.097 -14.132,37.528 -8.23,81.285 19.965,113.633 13.29,15.231 28.96,25.731 46.77,31.969 0,0 57.22,52.613 53.7,104.058 -3.53,51.434 -54.99,144.102 -54.99,144.102 0,0 -32.44,14.297 -50.062,30.981 -70.461,67.062 -35.414,152.914 -35.672,160.296 -0.301,1.297 -24.101,43.466 -55.461,71.136 -30.203,26.66 -114.113,27.15 -120.25,27.15 -0.234,0 -0.355,0 -0.355,0 l 0.137,0.25 c -33.657,-29.43 -76.055,-44.46 -118.641,-44.46 -41.895,0 -83.973,14.56 -118.055,44.27 -19.797,17.26 -34.769,37.94 -45.093,60.33 -3.196,0.08 -6.938,0.14 -11.125,0.14 -27.516,0 -73.891,-2.44 -105.786,-17.03 -35.797,-16.37 -77.66,-56.25 -96.574,-75.39 8.047,-41.388 -2.262,-85.9 -32.113,-120.146 -11.59,-13.293 -25.172,-23.75 -39.84,-31.617 -7.516,-18.906 -38.035,-99.59 -34.305,-154.039 3.25,-47.348 24.258,-96.039 34.047,-116.48 24.914,-3.067 49.207,-13.36 69.551,-31.086 49.527,-43.188 58.012,-115.332 23.195,-168.879 10.383,-12.207 53.594,-62.445 81.758,-85.789 26.172,-21.676 84.418,-31.563 105.332,-34.504 31,28.723 70.871,43.387 110.93,43.387" />
    </clipPath>
    <linearGradient
       inkscape:collect="always"
       xlink:href="#linearGradient4635"
       id="linearGradient5885"
       gradientUnits="userSpaceOnUse"
       gradientTransform="matrix(1252.1667,-189.75972,-189.75972,-1252.1667,-33.665417,787.15556)"
       x1="0"
       y1="0"
       x2="1"
       y2="0"
       spreadMethod="pad" />
    <linearGradient
       id="linearGradient4635"
       spreadMethod="pad"
       gradientTransform="matrix(1252.1667,-189.75972,-189.75972,-1252.1667,-33.665417,787.15556)"
       gradientUnits="userSpaceOnUse"
       y2="0"
       x2="1"
       y1="0"
       x1="0">
      <stop
         id="stop4627"
         offset="0"
         style="stop-opacity:1;stop-color:#176fc0" />
      <stop
         id="stop4629"
         offset="0.10734"
         style="stop-opacity:1;stop-color:#176fc0" />
      <stop
         id="stop4631"
         offset="0.84796"
         style="stop-opacity:1;stop-color:#61cceb" />
      <stop
         id="stop4633"
         offset="1"
         style="stop-opacity:1;stop-color:#61cceb" />
    </linearGradient>
    <clipPath
       id="clipPath4722-5-0-3"
       clipPathUnits="userSpaceOnUse">
      <path
         inkscape:connector-curvature="0"
         id="path4720-2-0-9"
         d="M 831.391,0.00390625 C 797.875,0.00390625 764.43,13.332 739.703,39.707 716.996,63.9336 705.859,94.75 705.836,125.512 681.922,147.727 592.797,229.297 541.637,259.641 c -56.86,33.703 -209.094,47.957 -209.094,47.957 0,0 0.57,0.937 1.383,2.254 -37.774,-31.039 -83.809,-46.438 -129.75,-46.438 -54.422,0 -108.6994,21.621 -148.883,64.477 -77.2227,82.371 -73.0508,211.738 9.3125,288.961 39.3905,36.925 89.4965,55.086 139.5235,55.086 11.559,0 23.117,-0.969 34.535,-2.903 36.277,24.875 135.328,95.27 219.246,177.34 94.82,92.742 140.422,181.715 149.25,212.655 -4.543,51.27 13.524,104.04 53.985,141.97 33.468,31.38 76.082,46.92 118.601,46.92 46.274,0 92.438,-18.4 126.582,-54.82 65.524,-69.89 61.985,-179.66 -7.906,-245.182 0,0 -48.668,-171.164 -54.227,-289.156 -5.113,-108.434 26.922,-397.223 29.067,-414.707 18.363,-6.485 35.535,-17.254 49.777,-32.457 C 970.496,160.98 967.934,81.457 917.316,33.9844 893.066,11.2539 862.199,0 831.391,0.00390625 M 654.496,954.625 C 614.051,935.629 523.285,885.574 470.512,834.414 c -51.582,-50 -94.567,-197.539 -104.953,-241.035 37.23,-47.633 50.14,-107.551 39.496,-163.793 22.269,-25.172 101.832,-127.727 152.218,-155.148 60.266,-32.813 188.153,-57.102 188.153,-57.102 15.937,14.934 34.75,24.902 54.512,29.988 l 0.027,0.028 c 7.039,2.035 29.488,204.875 19.871,352.293 -12.586,192.804 -77.883,305.527 -77.883,305.527 l 0.055,0.023 c -32.348,7.188 -62.945,23.727 -87.512,49.43" />
    </clipPath>
    <linearGradient
       inkscape:collect="always"
       xlink:href="#linearGradient4730"
       id="linearGradient5883"
       gradientUnits="userSpaceOnUse"
       gradientTransform="matrix(880.71944,833.85694,-833.85694,880.71944,257.63056,114.18333)"
       x1="0"
       y1="0"
       x2="1"
       y2="0"
       spreadMethod="pad" />
    <linearGradient
       id="linearGradient4730"
       spreadMethod="pad"
       gradientTransform="matrix(880.71944,833.85694,-833.85694,880.71944,257.63056,114.18333)"
       gradientUnits="userSpaceOnUse"
       y2="0"
       x2="1"
       y1="0"
       x1="0">
      <stop
         id="stop4724"
         offset="0"
         style="stop-opacity:1;stop-color:#f89f31" />
      <stop
         id="stop4726"
         offset="0.00762"
         style="stop-opacity:1;stop-color:#f89f31" />
      <stop
         id="stop4728"
         offset="1"
         style="stop-opacity:1;stop-color:#ed088b" />
    </linearGradient>
    <clipPath
       id="clipPath4669-5-1"
       clipPathUnits="userSpaceOnUse">
      <path
         inkscape:connector-curvature="0"
         id="path4667-1-5"
         d="M 0,0 H 1246 V 1320 H 0 Z" />
    </clipPath>
    <clipPath
       id="clipPath4675-6-2"
       clipPathUnits="userSpaceOnUse">
      <path
         inkscape:connector-curvature="0"
         id="path4673-1-4"
         d="m 505.172,0 c -21.719,0 -43.766,5.08594 -64.359,15.8164 -68.34,35.6172 -94.872,119.8866 -59.258,188.2306 1.761,3.391 3.734,6.594 5.73,9.766 l -0.14,-0.067 c 0,0 44.539,62.188 -43.465,195.149 -56.43,85.269 -198.02,170.289 -199.09,170.933 -19.992,1.852 -39.973,7.453 -58.8791,17.309 C 7.69531,637.785 -22.5938,733.984 18.0625,812 c 28.375,54.449 83.7775,85.539 141.1875,85.539 22.371,0 45.047,-4.723 66.543,-14.625 42.16,3.164 152.914,13.496 205.594,37.953 51.715,24.008 122.847,116.573 151.011,155.193 -5.918,42.59 0.7,87.32 22.082,128.35 38.223,73.36 112.922,115.36 190.293,115.36 33.368,0 67.25,-7.82 98.887,-24.31 104.992,-54.71 145.75,-184.19 91.051,-289.18 -1.668,-3.2 -3.621,-6.15 -5.426,-9.229 l 0.406,0.211 c 0,0 -67.668,-109.864 3.122,-267.078 33.687,-74.809 119.747,-138.278 158.027,-155.875 7.51,-2.536 14.95,-5.493 22.2,-9.27 75.94,-39.574 105.43,-133.215 65.85,-209.156 -27.65,-53.051 -81.68,-83.434 -137.64,-83.434 -24.13,0 -48.63,5.656 -71.52,17.586 -11.75,6.121 -22.242,13.664 -31.683,22.113 l 0.121,-0.324 c 0,0 -1.492,0.067 -4.309,0.067 -19.855,0 -105.375,-3.282 -196.687,-56.004 C 682.918,195.68 644.418,128.324 644.418,128.324 642.969,110.246 637.941,92.1641 629.043,75.0859 604.16,27.3359 555.535,-0.00390625 505.172,0 m 148.777,935.914 c -44.226,0 -131.199,-4.363 -197.207,-30.211 -61.945,-24.25 -112.508,-77.883 -149.562,-108.418 16.527,-41.555 15.679,-89.738 -6.606,-132.5 -2.148,-4.125 -4.535,-8.043 -6.984,-11.898 1.844,-20.778 14.43,-140.434 67.109,-234.637 27.785,-49.676 128.949,-122.512 153.117,-139.48 18.977,-1.145 38.02,-6.106 55.961,-15.457 16.891,-8.801 31.192,-20.583 42.664,-34.348 0.125,0.012 117.399,12.871 178.516,46.933 48.258,26.899 121.461,88.754 150.254,113.704 -3.117,44.007 18.855,103.836 34.102,123.82 0,0 10.078,122.742 -11.274,190.558 -21.348,67.817 -188.246,187.797 -188.246,187.797 l 0.055,0.032 c -27.274,2.379 -54.539,9.988 -80.321,23.429 -11.461,5.969 -22.007,12.981 -31.894,20.602 -2.942,0.047 -6.176,0.074 -9.684,0.074 m 334.219,-624.09 v 0 0" />
    </clipPath>
    <linearGradient
       inkscape:collect="always"
       xlink:href="#linearGradient4685"
       id="linearGradient5881"
       gradientUnits="userSpaceOnUse"
       gradientTransform="matrix(1211.7222,104.68056,104.68056,-1211.7222,10.958333,604.81944)"
       x1="0"
       y1="0"
       x2="1"
       y2="0"
       spreadMethod="pad" />
    <linearGradient
       id="linearGradient4685"
       spreadMethod="pad"
       gradientTransform="matrix(1211.7222,104.68056,104.68056,-1211.7222,10.958333,604.81944)"
       gradientUnits="userSpaceOnUse"
       y2="0"
       x2="1"
       y1="0"
       x1="0">
      <stop
         id="stop4677"
         offset="0"
         style="stop-opacity:1;stop-color:#40b93c" />
      <stop
         id="stop4679"
         offset="0.1092"
         style="stop-opacity:1;stop-color:#40b93c" />
      <stop
         id="stop4681"
         offset="0.90127"
         style="stop-opacity:1;stop-color:#fff200" />
      <stop
         id="stop4683"
         offset="1"
         style="stop-opacity:1;stop-color:#fff200" />
    </linearGradient>
    <clipPath
       id="clipPath4722-5-0-7"
       clipPathUnits="userSpaceOnUse">
      <path
         inkscape:connector-curvature="0"
         id="path4720-2-0-7"
         d="M 831.391,0.00390625 C 797.875,0.00390625 764.43,13.332 739.703,39.707 716.996,63.9336 705.859,94.75 705.836,125.512 681.922,147.727 592.797,229.297 541.637,259.641 c -56.86,33.703 -209.094,47.957 -209.094,47.957 0,0 0.57,0.937 1.383,2.254 -37.774,-31.039 -83.809,-46.438 -129.75,-46.438 -54.422,0 -108.6994,21.621 -148.883,64.477 -77.2227,82.371 -73.0508,211.738 9.3125,288.961 39.3905,36.925 89.4965,55.086 139.5235,55.086 11.559,0 23.117,-0.969 34.535,-2.903 36.277,24.875 135.328,95.27 219.246,177.34 94.82,92.742 140.422,181.715 149.25,212.655 -4.543,51.27 13.524,104.04 53.985,141.97 33.468,31.38 76.082,46.92 118.601,46.92 46.274,0 92.438,-18.4 126.582,-54.82 65.524,-69.89 61.985,-179.66 -7.906,-245.182 0,0 -48.668,-171.164 -54.227,-289.156 -5.113,-108.434 26.922,-397.223 29.067,-414.707 18.363,-6.485 35.535,-17.254 49.777,-32.457 C 970.496,160.98 967.934,81.457 917.316,33.9844 893.066,11.2539 862.199,0 831.391,0.00390625 M 654.496,954.625 C 614.051,935.629 523.285,885.574 470.512,834.414 c -51.582,-50 -94.567,-197.539 -104.953,-241.035 37.23,-47.633 50.14,-107.551 39.496,-163.793 22.269,-25.172 101.832,-127.727 152.218,-155.148 60.266,-32.813 188.153,-57.102 188.153,-57.102 15.937,14.934 34.75,24.902 54.512,29.988 l 0.027,0.028 c 7.039,2.035 29.488,204.875 19.871,352.293 -12.586,192.804 -77.883,305.527 -77.883,305.527 l 0.055,0.023 c -32.348,7.188 -62.945,23.727 -87.512,49.43" />
    </clipPath>
    <clipPath
       id="clipPath4669-5-8"
       clipPathUnits="userSpaceOnUse">
      <path
         inkscape:connector-curvature="0"
         id="path4667-1-2"
         d="M 0,0 H 1246 V 1320 H 0 Z" />
    </clipPath>
    <clipPath
       id="clipPath4675-6-9"
       clipPathUnits="userSpaceOnUse">
      <path
         inkscape:connector-curvature="0"
         id="path4673-1-2"
         d="m 505.172,0 c -21.719,0 -43.766,5.08594 -64.359,15.8164 -68.34,35.6172 -94.872,119.8866 -59.258,188.2306 1.761,3.391 3.734,6.594 5.73,9.766 l -0.14,-0.067 c 0,0 44.539,62.188 -43.465,195.149 -56.43,85.269 -198.02,170.289 -199.09,170.933 -19.992,1.852 -39.973,7.453 -58.8791,17.309 C 7.69531,637.785 -22.5938,733.984 18.0625,812 c 28.375,54.449 83.7775,85.539 141.1875,85.539 22.371,0 45.047,-4.723 66.543,-14.625 42.16,3.164 152.914,13.496 205.594,37.953 51.715,24.008 122.847,116.573 151.011,155.193 -5.918,42.59 0.7,87.32 22.082,128.35 38.223,73.36 112.922,115.36 190.293,115.36 33.368,0 67.25,-7.82 98.887,-24.31 104.992,-54.71 145.75,-184.19 91.051,-289.18 -1.668,-3.2 -3.621,-6.15 -5.426,-9.229 l 0.406,0.211 c 0,0 -67.668,-109.864 3.122,-267.078 33.687,-74.809 119.747,-138.278 158.027,-155.875 7.51,-2.536 14.95,-5.493 22.2,-9.27 75.94,-39.574 105.43,-133.215 65.85,-209.156 -27.65,-53.051 -81.68,-83.434 -137.64,-83.434 -24.13,0 -48.63,5.656 -71.52,17.586 -11.75,6.121 -22.242,13.664 -31.683,22.113 l 0.121,-0.324 c 0,0 -1.492,0.067 -4.309,0.067 -19.855,0 -105.375,-3.282 -196.687,-56.004 C 682.918,195.68 644.418,128.324 644.418,128.324 642.969,110.246 637.941,92.1641 629.043,75.0859 604.16,27.3359 555.535,-0.00390625 505.172,0 m 148.777,935.914 c -44.226,0 -131.199,-4.363 -197.207,-30.211 -61.945,-24.25 -112.508,-77.883 -149.562,-108.418 16.527,-41.555 15.679,-89.738 -6.606,-132.5 -2.148,-4.125 -4.535,-8.043 -6.984,-11.898 1.844,-20.778 14.43,-140.434 67.109,-234.637 27.785,-49.676 128.949,-122.512 153.117,-139.48 18.977,-1.145 38.02,-6.106 55.961,-15.457 16.891,-8.801 31.192,-20.583 42.664,-34.348 0.125,0.012 117.399,12.871 178.516,46.933 48.258,26.899 121.461,88.754 150.254,113.704 -3.117,44.007 18.855,103.836 34.102,123.82 0,0 10.078,122.742 -11.274,190.558 -21.348,67.817 -188.246,187.797 -188.246,187.797 l 0.055,0.032 c -27.274,2.379 -54.539,9.988 -80.321,23.429 -11.461,5.969 -22.007,12.981 -31.894,20.602 -2.942,0.047 -6.176,0.074 -9.684,0.074 m 334.219,-624.09 v 0 0" />
    </clipPath>
    <clipPath
       id="clipPath4625-8-0"
       clipPathUnits="userSpaceOnUse">
      <path
         inkscape:connector-curvature="0"
         id="path4623-7-7"
         d="M 598.816,0 C 560.77,0 522.547,13.2305 491.613,40.1953 443.891,81.793 426.332,145 440.535,202.496 c 0,0 -23.851,70.094 -68.844,98.945 -44.98,28.848 -120.203,56.598 -120.203,56.598 l -0.402,0.07 c -18.602,-9.636 -38.957,-14.504 -59.352,-14.504 -30.156,0 -60.398,10.641 -85.164,32.231 -54.2419,47.281 -59.8825,129.582 -12.6012,183.824 8.8362,10.133 19.1722,18 30.0512,24.711 7.668,19.559 33.867,90.074 30.855,134.063 -3.281,47.863 -46.293,132.539 -52.266,144.101 -19.3629,5.535 -37.8707,15.153 -54.0504,29.258 -58.9531,51.387 -65.082,140.827 -13.6992,199.777 28,32.12 67.2926,48.56 106.8006,48.56 33,0 66.156,-11.48 92.988,-34.86 8.161,-7.11 15.2,-15.01 21.321,-23.39 27.539,4.66 89.539,16.67 120.265,34.76 31.016,18.26 80.664,68.73 101.774,90.88 2.902,37.24 17.172,73.91 43.601,104.23 35.621,40.86 85.614,61.78 135.875,61.78 41.989,0 84.161,-14.6 118.293,-44.35 55.977,-48.8 74.477,-124.56 53.102,-191.04 11.246,-18.37 43.418,-67.64 78.871,-91.96 44.066,-30.23 97.27,-32.68 97.27,-32.68 22.03,14.43 47.19,21.67 72.48,21.67 31.48,0 63.14,-11.24 89.08,-33.85 56.36,-49.129 62.23,-134.648 13.09,-191.007 -9.81,-11.258 -32.01,-26.918 -32.01,-26.918 0,0 -40.21,-96.118 -35.96,-158.157 4.25,-62.023 39.08,-126.519 39.08,-126.519 46.87,-40.867 51.74,-111.977 10.89,-158.852 -22.15,-25.402 -53.08,-38.301 -84.26,-38.301 -23.26,0 -46.65,7.188 -66.59,21.723 C 987.531,318.691 915.793,303.543 873.641,283.605 822.816,259.57 759.762,190.789 759.762,190.789 h -0.016 C 767.707,144.145 755.461,94.4375 721.938,55.9844 689.66,18.9531 644.363,0 598.816,0 m 0.192,326.477 c 38.027,0 76.222,-13.215 107.144,-40.172 9.813,-8.559 17.965,-17.539 25.219,-27.684 0,0 99.016,15.746 141.711,41.477 36.555,22.027 85.504,62.785 98.863,74.097 -14.132,37.528 -8.23,81.285 19.965,113.633 13.29,15.231 28.96,25.731 46.77,31.969 0,0 57.22,52.613 53.7,104.058 -3.53,51.434 -54.99,144.102 -54.99,144.102 0,0 -32.44,14.297 -50.062,30.981 -70.461,67.062 -35.414,152.914 -35.672,160.296 -0.301,1.297 -24.101,43.466 -55.461,71.136 -30.203,26.66 -114.113,27.15 -120.25,27.15 -0.234,0 -0.355,0 -0.355,0 l 0.137,0.25 c -33.657,-29.43 -76.055,-44.46 -118.641,-44.46 -41.895,0 -83.973,14.56 -118.055,44.27 -19.797,17.26 -34.769,37.94 -45.093,60.33 -3.196,0.08 -6.938,0.14 -11.125,0.14 -27.516,0 -73.891,-2.44 -105.786,-17.03 -35.797,-16.37 -77.66,-56.25 -96.574,-75.39 8.047,-41.388 -2.262,-85.9 -32.113,-120.146 -11.59,-13.293 -25.172,-23.75 -39.84,-31.617 -7.516,-18.906 -38.035,-99.59 -34.305,-154.039 3.25,-47.348 24.258,-96.039 34.047,-116.48 24.914,-3.067 49.207,-13.36 69.551,-31.086 49.527,-43.188 58.012,-115.332 23.195,-168.879 10.383,-12.207 53.594,-62.445 81.758,-85.789 26.172,-21.676 84.418,-31.563 105.332,-34.504 31,28.723 70.871,43.387 110.93,43.387" />
    </clipPath>
    <clipPath
       id="clipPath4625-8-4-3"
       clipPathUnits="userSpaceOnUse">
      <path
         inkscape:connector-curvature="0"
         id="path4623-7-0-1"
         d="M 598.816,0 C 560.77,0 522.547,13.2305 491.613,40.1953 443.891,81.793 426.332,145 440.535,202.496 c 0,0 -23.851,70.094 -68.844,98.945 -44.98,28.848 -120.203,56.598 -120.203,56.598 l -0.402,0.07 c -18.602,-9.636 -38.957,-14.504 -59.352,-14.504 -30.156,0 -60.398,10.641 -85.164,32.231 -54.2419,47.281 -59.8825,129.582 -12.6012,183.824 8.8362,10.133 19.1722,18 30.0512,24.711 7.668,19.559 33.867,90.074 30.855,134.063 -3.281,47.863 -46.293,132.539 -52.266,144.101 -19.3629,5.535 -37.8707,15.153 -54.0504,29.258 -58.9531,51.387 -65.082,140.827 -13.6992,199.777 28,32.12 67.2926,48.56 106.8006,48.56 33,0 66.156,-11.48 92.988,-34.86 8.161,-7.11 15.2,-15.01 21.321,-23.39 27.539,4.66 89.539,16.67 120.265,34.76 31.016,18.26 80.664,68.73 101.774,90.88 2.902,37.24 17.172,73.91 43.601,104.23 35.621,40.86 85.614,61.78 135.875,61.78 41.989,0 84.161,-14.6 118.293,-44.35 55.977,-48.8 74.477,-124.56 53.102,-191.04 11.246,-18.37 43.418,-67.64 78.871,-91.96 44.066,-30.23 97.27,-32.68 97.27,-32.68 22.03,14.43 47.19,21.67 72.48,21.67 31.48,0 63.14,-11.24 89.08,-33.85 56.36,-49.129 62.23,-134.648 13.09,-191.007 -9.81,-11.258 -32.01,-26.918 -32.01,-26.918 0,0 -40.21,-96.118 -35.96,-158.157 4.25,-62.023 39.08,-126.519 39.08,-126.519 46.87,-40.867 51.74,-111.977 10.89,-158.852 -22.15,-25.402 -53.08,-38.301 -84.26,-38.301 -23.26,0 -46.65,7.188 -66.59,21.723 C 987.531,318.691 915.793,303.543 873.641,283.605 822.816,259.57 759.762,190.789 759.762,190.789 h -0.016 C 767.707,144.145 755.461,94.4375 721.938,55.9844 689.66,18.9531 644.363,0 598.816,0 m 0.192,326.477 c 38.027,0 76.222,-13.215 107.144,-40.172 9.813,-8.559 17.965,-17.539 25.219,-27.684 0,0 99.016,15.746 141.711,41.477 36.555,22.027 85.504,62.785 98.863,74.097 -14.132,37.528 -8.23,81.285 19.965,113.633 13.29,15.231 28.96,25.731 46.77,31.969 0,0 57.22,52.613 53.7,104.058 -3.53,51.434 -54.99,144.102 -54.99,144.102 0,0 -32.44,14.297 -50.062,30.981 -70.461,67.062 -35.414,152.914 -35.672,160.296 -0.301,1.297 -24.101,43.466 -55.461,71.136 -30.203,26.66 -114.113,27.15 -120.25,27.15 -0.234,0 -0.355,0 -0.355,0 l 0.137,0.25 c -33.657,-29.43 -76.055,-44.46 -118.641,-44.46 -41.895,0 -83.973,14.56 -118.055,44.27 -19.797,17.26 -34.769,37.94 -45.093,60.33 -3.196,0.08 -6.938,0.14 -11.125,0.14 -27.516,0 -73.891,-2.44 -105.786,-17.03 -35.797,-16.37 -77.66,-56.25 -96.574,-75.39 8.047,-41.388 -2.262,-85.9 -32.113,-120.146 -11.59,-13.293 -25.172,-23.75 -39.84,-31.617 -7.516,-18.906 -38.035,-99.59 -34.305,-154.039 3.25,-47.348 24.258,-96.039 34.047,-116.48 24.914,-3.067 49.207,-13.36 69.551,-31.086 49.527,-43.188 58.012,-115.332 23.195,-168.879 10.383,-12.207 53.594,-62.445 81.758,-85.789 26.172,-21.676 84.418,-31.563 105.332,-34.504 31,28.723 70.871,43.387 110.93,43.387" />
    </clipPath>
    <clipPath
       id="clipPath4912"
       clipPathUnits="userSpaceOnUse">
      <path
         inkscape:connector-curvature="0"
         id="path4910"
         d="M 598.816,0 C 560.77,0 522.547,13.2305 491.613,40.1953 443.891,81.793 426.332,145 440.535,202.496 c 0,0 -23.851,70.094 -68.844,98.945 -44.98,28.848 -120.203,56.598 -120.203,56.598 l -0.402,0.07 c -18.602,-9.636 -38.957,-14.504 -59.352,-14.504 -30.156,0 -60.398,10.641 -85.164,32.231 -54.2419,47.281 -59.8825,129.582 -12.6012,183.824 8.8362,10.133 19.1722,18 30.0512,24.711 7.668,19.559 33.867,90.074 30.855,134.063 -3.281,47.863 -46.293,132.539 -52.266,144.101 -19.3629,5.535 -37.8707,15.153 -54.0504,29.258 -58.9531,51.387 -65.082,140.827 -13.6992,199.777 28,32.12 67.2926,48.56 106.8006,48.56 33,0 66.156,-11.48 92.988,-34.86 8.161,-7.11 15.2,-15.01 21.321,-23.39 27.539,4.66 89.539,16.67 120.265,34.76 31.016,18.26 80.664,68.73 101.774,90.88 2.902,37.24 17.172,73.91 43.601,104.23 35.621,40.86 85.614,61.78 135.875,61.78 41.989,0 84.161,-14.6 118.293,-44.35 55.977,-48.8 74.477,-124.56 53.102,-191.04 11.246,-18.37 43.418,-67.64 78.871,-91.96 44.066,-30.23 97.27,-32.68 97.27,-32.68 22.03,14.43 47.19,21.67 72.48,21.67 31.48,0 63.14,-11.24 89.08,-33.85 56.36,-49.129 62.23,-134.648 13.09,-191.007 -9.81,-11.258 -32.01,-26.918 -32.01,-26.918 0,0 -40.21,-96.118 -35.96,-158.157 4.25,-62.023 39.08,-126.519 39.08,-126.519 46.87,-40.867 51.74,-111.977 10.89,-158.852 -22.15,-25.402 -53.08,-38.301 -84.26,-38.301 -23.26,0 -46.65,7.188 -66.59,21.723 C 987.531,318.691 915.793,303.543 873.641,283.605 822.816,259.57 759.762,190.789 759.762,190.789 h -0.016 C 767.707,144.145 755.461,94.4375 721.938,55.9844 689.66,18.9531 644.363,0 598.816,0 m 0.192,326.477 c 38.027,0 76.222,-13.215 107.144,-40.172 9.813,-8.559 17.965,-17.539 25.219,-27.684 0,0 99.016,15.746 141.711,41.477 36.555,22.027 85.504,62.785 98.863,74.097 -14.132,37.528 -8.23,81.285 19.965,113.633 13.29,15.231 28.96,25.731 46.77,31.969 0,0 57.22,52.613 53.7,104.058 -3.53,51.434 -54.99,144.102 -54.99,144.102 0,0 -32.44,14.297 -50.062,30.981 -70.461,67.062 -35.414,152.914 -35.672,160.296 -0.301,1.297 -24.101,43.466 -55.461,71.136 -30.203,26.66 -114.113,27.15 -120.25,27.15 -0.234,0 -0.355,0 -0.355,0 l 0.137,0.25 c -33.657,-29.43 -76.055,-44.46 -118.641,-44.46 -41.895,0 -83.973,14.56 -118.055,44.27 -19.797,17.26 -34.769,37.94 -45.093,60.33 -3.196,0.08 -6.938,0.14 -11.125,0.14 -27.516,0 -73.891,-2.44 -105.786,-17.03 -35.797,-16.37 -77.66,-56.25 -96.574,-75.39 8.047,-41.388 -2.262,-85.9 -32.113,-120.146 -11.59,-13.293 -25.172,-23.75 -39.84,-31.617 -7.516,-18.906 -38.035,-99.59 -34.305,-154.039 3.25,-47.348 24.258,-96.039 34.047,-116.48 24.914,-3.067 49.207,-13.36 69.551,-31.086 49.527,-43.188 58.012,-115.332 23.195,-168.879 10.383,-12.207 53.594,-62.445 81.758,-85.789 26.172,-21.676 84.418,-31.563 105.332,-34.504 31,28.723 70.871,43.387 110.93,43.387" />
    </clipPath>
    <linearGradient
       inkscape:collect="always"
       xlink:href="#linearGradient4635"
       id="linearGradient7346"
       gradientUnits="userSpaceOnUse"
       gradientTransform="matrix(1252.1667,-189.75972,-189.75972,-1252.1667,-33.665417,787.15556)"
       x1="0"
       y1="0"
       x2="1"
       y2="0"
       spreadMethod="pad" />
    <clipPath
       id="clipPath4625-8-9-8"
       clipPathUnits="userSpaceOnUse">
      <path
         inkscape:connector-curvature="0"
         id="path4623-7-3-7"
         d="M 598.816,0 C 560.77,0 522.547,13.2305 491.613,40.1953 443.891,81.793 426.332,145 440.535,202.496 c 0,0 -23.851,70.094 -68.844,98.945 -44.98,28.848 -120.203,56.598 -120.203,56.598 l -0.402,0.07 c -18.602,-9.636 -38.957,-14.504 -59.352,-14.504 -30.156,0 -60.398,10.641 -85.164,32.231 -54.2419,47.281 -59.8825,129.582 -12.6012,183.824 8.8362,10.133 19.1722,18 30.0512,24.711 7.668,19.559 33.867,90.074 30.855,134.063 -3.281,47.863 -46.293,132.539 -52.266,144.101 -19.3629,5.535 -37.8707,15.153 -54.0504,29.258 -58.9531,51.387 -65.082,140.827 -13.6992,199.777 28,32.12 67.2926,48.56 106.8006,48.56 33,0 66.156,-11.48 92.988,-34.86 8.161,-7.11 15.2,-15.01 21.321,-23.39 27.539,4.66 89.539,16.67 120.265,34.76 31.016,18.26 80.664,68.73 101.774,90.88 2.902,37.24 17.172,73.91 43.601,104.23 35.621,40.86 85.614,61.78 135.875,61.78 41.989,0 84.161,-14.6 118.293,-44.35 55.977,-48.8 74.477,-124.56 53.102,-191.04 11.246,-18.37 43.418,-67.64 78.871,-91.96 44.066,-30.23 97.27,-32.68 97.27,-32.68 22.03,14.43 47.19,21.67 72.48,21.67 31.48,0 63.14,-11.24 89.08,-33.85 56.36,-49.129 62.23,-134.648 13.09,-191.007 -9.81,-11.258 -32.01,-26.918 -32.01,-26.918 0,0 -40.21,-96.118 -35.96,-158.157 4.25,-62.023 39.08,-126.519 39.08,-126.519 46.87,-40.867 51.74,-111.977 10.89,-158.852 -22.15,-25.402 -53.08,-38.301 -84.26,-38.301 -23.26,0 -46.65,7.188 -66.59,21.723 C 987.531,318.691 915.793,303.543 873.641,283.605 822.816,259.57 759.762,190.789 759.762,190.789 h -0.016 C 767.707,144.145 755.461,94.4375 721.938,55.9844 689.66,18.9531 644.363,0 598.816,0 m 0.192,326.477 c 38.027,0 76.222,-13.215 107.144,-40.172 9.813,-8.559 17.965,-17.539 25.219,-27.684 0,0 99.016,15.746 141.711,41.477 36.555,22.027 85.504,62.785 98.863,74.097 -14.132,37.528 -8.23,81.285 19.965,113.633 13.29,15.231 28.96,25.731 46.77,31.969 0,0 57.22,52.613 53.7,104.058 -3.53,51.434 -54.99,144.102 -54.99,144.102 0,0 -32.44,14.297 -50.062,30.981 -70.461,67.062 -35.414,152.914 -35.672,160.296 -0.301,1.297 -24.101,43.466 -55.461,71.136 -30.203,26.66 -114.113,27.15 -120.25,27.15 -0.234,0 -0.355,0 -0.355,0 l 0.137,0.25 c -33.657,-29.43 -76.055,-44.46 -118.641,-44.46 -41.895,0 -83.973,14.56 -118.055,44.27 -19.797,17.26 -34.769,37.94 -45.093,60.33 -3.196,0.08 -6.938,0.14 -11.125,0.14 -27.516,0 -73.891,-2.44 -105.786,-17.03 -35.797,-16.37 -77.66,-56.25 -96.574,-75.39 8.047,-41.388 -2.262,-85.9 -32.113,-120.146 -11.59,-13.293 -25.172,-23.75 -39.84,-31.617 -7.516,-18.906 -38.035,-99.59 -34.305,-154.039 3.25,-47.348 24.258,-96.039 34.047,-116.48 24.914,-3.067 49.207,-13.36 69.551,-31.086 49.527,-43.188 58.012,-115.332 23.195,-168.879 10.383,-12.207 53.594,-62.445 81.758,-85.789 26.172,-21.676 84.418,-31.563 105.332,-34.504 31,28.723 70.871,43.387 110.93,43.387" />
    </clipPath>
    <clipPath
       id="clipPath4625-8-4-2-3"
       clipPathUnits="userSpaceOnUse">
      <path
         inkscape:connector-curvature="0"
         id="path4623-7-0-3-2"
         d="M 598.816,0 C 560.77,0 522.547,13.2305 491.613,40.1953 443.891,81.793 426.332,145 440.535,202.496 c 0,0 -23.851,70.094 -68.844,98.945 -44.98,28.848 -120.203,56.598 -120.203,56.598 l -0.402,0.07 c -18.602,-9.636 -38.957,-14.504 -59.352,-14.504 -30.156,0 -60.398,10.641 -85.164,32.231 -54.2419,47.281 -59.8825,129.582 -12.6012,183.824 8.8362,10.133 19.1722,18 30.0512,24.711 7.668,19.559 33.867,90.074 30.855,134.063 -3.281,47.863 -46.293,132.539 -52.266,144.101 -19.3629,5.535 -37.8707,15.153 -54.0504,29.258 -58.9531,51.387 -65.082,140.827 -13.6992,199.777 28,32.12 67.2926,48.56 106.8006,48.56 33,0 66.156,-11.48 92.988,-34.86 8.161,-7.11 15.2,-15.01 21.321,-23.39 27.539,4.66 89.539,16.67 120.265,34.76 31.016,18.26 80.664,68.73 101.774,90.88 2.902,37.24 17.172,73.91 43.601,104.23 35.621,40.86 85.614,61.78 135.875,61.78 41.989,0 84.161,-14.6 118.293,-44.35 55.977,-48.8 74.477,-124.56 53.102,-191.04 11.246,-18.37 43.418,-67.64 78.871,-91.96 44.066,-30.23 97.27,-32.68 97.27,-32.68 22.03,14.43 47.19,21.67 72.48,21.67 31.48,0 63.14,-11.24 89.08,-33.85 56.36,-49.129 62.23,-134.648 13.09,-191.007 -9.81,-11.258 -32.01,-26.918 -32.01,-26.918 0,0 -40.21,-96.118 -35.96,-158.157 4.25,-62.023 39.08,-126.519 39.08,-126.519 46.87,-40.867 51.74,-111.977 10.89,-158.852 -22.15,-25.402 -53.08,-38.301 -84.26,-38.301 -23.26,0 -46.65,7.188 -66.59,21.723 C 987.531,318.691 915.793,303.543 873.641,283.605 822.816,259.57 759.762,190.789 759.762,190.789 h -0.016 C 767.707,144.145 755.461,94.4375 721.938,55.9844 689.66,18.9531 644.363,0 598.816,0 m 0.192,326.477 c 38.027,0 76.222,-13.215 107.144,-40.172 9.813,-8.559 17.965,-17.539 25.219,-27.684 0,0 99.016,15.746 141.711,41.477 36.555,22.027 85.504,62.785 98.863,74.097 -14.132,37.528 -8.23,81.285 19.965,113.633 13.29,15.231 28.96,25.731 46.77,31.969 0,0 57.22,52.613 53.7,104.058 -3.53,51.434 -54.99,144.102 -54.99,144.102 0,0 -32.44,14.297 -50.062,30.981 -70.461,67.062 -35.414,152.914 -35.672,160.296 -0.301,1.297 -24.101,43.466 -55.461,71.136 -30.203,26.66 -114.113,27.15 -120.25,27.15 -0.234,0 -0.355,0 -0.355,0 l 0.137,0.25 c -33.657,-29.43 -76.055,-44.46 -118.641,-44.46 -41.895,0 -83.973,14.56 -118.055,44.27 -19.797,17.26 -34.769,37.94 -45.093,60.33 -3.196,0.08 -6.938,0.14 -11.125,0.14 -27.516,0 -73.891,-2.44 -105.786,-17.03 -35.797,-16.37 -77.66,-56.25 -96.574,-75.39 8.047,-41.388 -2.262,-85.9 -32.113,-120.146 -11.59,-13.293 -25.172,-23.75 -39.84,-31.617 -7.516,-18.906 -38.035,-99.59 -34.305,-154.039 3.25,-47.348 24.258,-96.039 34.047,-116.48 24.914,-3.067 49.207,-13.36 69.551,-31.086 49.527,-43.188 58.012,-115.332 23.195,-168.879 10.383,-12.207 53.594,-62.445 81.758,-85.789 26.172,-21.676 84.418,-31.563 105.332,-34.504 31,28.723 70.871,43.387 110.93,43.387" />
    </clipPath>
  </defs>
  <sodipodi:namedview
     id="base"
     pagecolor="#ffffff"
     bordercolor="#666666"
     borderopacity="1.0"
     inkscape:pageopacity="0.0"
     inkscape:pageshadow="2"
     inkscape:zoom="0.35"
     inkscape:cx="-283.8161"
     inkscape:cy="182.83869"
     inkscape:document-units="mm"
     inkscape:current-layer="layer1"
     showgrid="false"
     inkscape:window-width="1440"
     inkscape:window-height="803"
     inkscape:window-x="84"
     inkscape:window-y="33"
     inkscape:window-maximized="0" />
  <metadata
     id="metadata6579">
    <rdf:RDF>
      <cc:Work
         rdf:about="">
        <dc:format>image/svg+xml</dc:format>
        <dc:type
           rdf:resource="http://purl.org/dc/dcmitype/StillImage" />
        <dc:title />
      </cc:Work>
    </rdf:RDF>
  </metadata>
  <g
     inkscape:label="Layer 1"
     inkscape:groupmode="layer"
     id="layer1"
     transform="translate(-46.294149,-85.90218)">
    <g
       transform="matrix(0.62512059,0,0,-0.63221227,-606.30376,-60.097562)"
       inkscape:label="HexagonFab_Square_Module"
       id="g4659-4-3">
      <g
         transform="scale(0.072)"
         id="g4661-0-5">
        <g
           id="g4663-1-6">
          <g
             clip-path="url(#clipPath4669-5-1)"
             id="g4665-1-2">
            <g
               clip-path="url(#clipPath4675-6-2)"
               id="g4671-4-3">
              <path
                 inkscape:connector-curvature="0"
                 id="path4687-6-9"
                 style="fill:url(#linearGradient5881);fill-opacity:1;fill-rule:nonzero;stroke:none"
                 d="m 488,0 v 1 h -5 v 1 h -6 v 1 h -5 v 1 h -4 v 1 h -3 v 1 h -3 v 1 h -3 v 1 h -3 v 1 h -3 v 1 h -2 v 1 h -3 v 1 h -2 v 1 h -2 v 1 h -2 v 1 h -2 v 1 h -2 v 1 h -2 v 1 h -1 v 1 h -2 v 1 h -2 v 1 h -1 v 1 h -2 v 1 h -1 v 1 h -2 v 1 h -1 v 1 h -1 v 1 h -2 v 1 h -1 v 1 h -1 v 1 h -2 v 1 h -1 v 1 h -1 v 1 h -1 v 1 h -1 v 1 h -2 v 1 h -1 v 1 h -1 v 1 h -1 v 1 h -1 v 1 h -1 v 1 h -1 v 1 h -1 v 1 h -1 v 1 h -1 v 1 h -1 v 2 h -1 v 1 h -1 v 1 h -1 v 1 h -1 v 1 h -1 v 1 h -1 v 2 h -1 v 1 h -1 v 1 h -1 v 2 h -1 v 1 h -1 v 1 h -1 v 2 h -1 v 2 h -1 v 1 h -1 v 2 h -1 v 2 h -1 v 1 h -1 v 2 h -1 v 2 h -1 v 2 h -1 v 2 h -1 v 2 h -1 v 2 h -1 v 2 h -1 v 3 h -1 v 3 h -1 v 2 h -1 v 3 h -1 v 3 h -1 v 4 h -1 v 4 h -1 v 3 h -1 v 6 h -1 v 6 h -1 v 12 h -1 v 13 h 1 v 12 h 1 v 7 h 1 v 4 h 1 v 5 h 1 v 4 h 1 v 3 h 1 v 3 h 1 v 3 h 1 v 3 h 1 v 2 h 1 v 3 h 1 v 2 h 1 v 2 h 1 v 3 h 1 v 1 h 1 v 2 h 1 v 2 h 1 v 2 h 1 v 1 h 1 v 2 h 1 v 2 h 1 v 2 h 1 v 1 h 1 v 2 h 1 v 3 h 1 v 2 h 1 v 3 h 1 v 3 h 1 v 4 h 1 v 4 h 1 v 6 h 1 v 9 h 1 v 18 h -1 v 10 h -1 v 8 h -1 v 5 h -1 v 4 h -1 v 5 h -1 v 4 h -1 v 3 h -1 v 4 h -1 v 3 h -1 v 3 h -1 v 3 h -1 v 3 h -1 v 3 h -1 v 2 h -1 v 3 h -1 v 3 h -1 v 2 h -1 v 3 h -1 v 2 h -1 v 2 h -1 v 2 h -1 v 3 h -1 v 2 h -1 v 2 h -1 v 2 h -1 v 2 h -1 v 2 h -1 v 2 h -1 v 2 h -1 v 2 h -1 v 2 h -1 v 2 h -1 v 2 h -1 v 1 h -1 v 2 h -1 v 2 h -1 v 2 h -1 v 2 h -1 v 2 h -1 v 1 h -1 v 2 h -1 v 2 h -1 v 1 h -1 v 2 h -1 v 2 h -1 v 1 h -1 v 2 h -1 v 2 h -1 v 1 h -1 v 2 h -1 v 1 h -1 v 2 h -1 v 1 h -1 v 2 h -1 v 1 h -1 v 2 h -1 v 1 h -1 v 2 h -1 v 1 h -1 v 1 h -1 v 2 h -1 v 1 h -1 v 2 h -1 v 1 h -1 v 1 h -1 v 2 h -1 v 1 h -1 v 1 h -1 v 1 h -1 v 1 h -1 v 2 h -1 v 1 h -1 v 1 h -1 v 1 h -1 v 1 h -1 v 2 h -1 v 1 h -1 v 1 h -1 v 1 h -1 v 1 h -1 v 1 h -1 v 1 h -1 v 1 h -1 v 2 h -1 v 1 h -1 v 1 h -1 v 1 h -1 v 1 h -1 v 1 h -1 v 1 h -1 v 1 h -1 v 1 h -1 v 1 h -1 v 1 h -1 v 1 h -1 v 1 h -1 v 1 h -1 v 1 h -1 v 1 h -1 v 1 h -1 v 1 h -1 v 1 h -1 v 1 h -1 v 1 h -1 v 1 h -1 v 1 h -1 v 1 h -1 v 1 h -1 v 1 h -1 v 1 h -1 v 1 h -1 v 1 h -1 v 1 h -2 v 1 h -1 v 1 h -1 v 1 h -1 v 1 h -1 v 1 h -1 v 1 h -1 v 1 h -1 v 1 h -1 v 1 h -1 v 1 h -2 v 1 h -1 v 1 h -1 v 1 h -1 v 1 h -1 v 1 h -1 v 1 h -2 v 1 h -1 v 1 h -1 v 1 h -1 v 1 h -1 v 1 h -1 v 1 h -2 v 1 h -1 v 1 h -1 v 1 h -1 v 1 h -1 v 1 h -2 v 1 h -1 v 1 h -1 v 1 h -1 v 1 h -2 v 1 h -1 v 1 h -1 v 1 h -1 v 1 h -2 v 1 h -1 v 1 h -1 v 1 h -1 v 1 h -2 v 1 h -1 v 1 h -1 v 1 h -2 v 1 h -1 v 1 h -1 v 1 h -1 v 1 h -2 v 1 h -1 v 1 h -1 v 1 h -2 v 1 h -1 v 1 h -1 v 1 h -2 v 1 h -1 v 1 h -1 v 1 h -2 v 1 h -1 v 1 h -1 v 1 h -2 v 1 h -1 v 1 h -2 v 1 h -1 v 1 h -1 v 1 h -2 v 1 h -1 v 1 h -2 v 1 h -1 v 1 h -1 v 1 h -2 v 1 h -1 v 1 h -2 v 1 h -1 v 1 h -1 v 1 h -2 v 1 h -1 v 1 h -2 v 1 h -1 v 1 h -2 v 1 h -1 v 1 h -2 v 1 h -1 v 1 h -2 v 1 h -1 v 1 h -2 v 1 h -1 v 1 h -2 v 1 h -1 v 1 h -2 v 1 h -1 v 1 h -2 v 1 h -1 v 1 h -2 v 1 h -1 v 1 h -2 v 1 h -1 v 1 h -2 v 1 h -1 v 1 h -2 v 1 h -2 v 1 h -1 v 1 h -2 v 1 h -1 v 1 h -2 v 1 h -2 v 1 h -3 v 1 h -6 v 1 h -5 v 1 h -5 v 1 h -5 v 1 h -4 v 1 h -4 v 1 h -3 v 1 h -2 v 1 h -3 v 1 h -3 v 1 h -2 v 1 h -3 v 1 h -3 v 1 h -2 v 1 h -3 v 1 h -2 v 1 h -2 v 1 h -1 v 1 h -2 v 1 h -2 v 1 h -2 v 1 h -1 v 1 h -2 v 1 h -2 v 1 h -1 v 1 h -2 v 1 h -1 v 1 h -1 v 1 h -2 v 1 h -1 v 1 h -2 v 1 h -1 v 1 h -1 v 1 h -2 v 1 h -1 v 1 h -1 v 1 h -1 v 1 h -1 v 1 h -1 v 1 h -2 v 1 h -1 v 1 h -1 v 1 h -1 v 1 h -1 v 1 h -1 v 1 h -1 v 1 h -1 v 1 h -1 v 1 h -1 v 1 h -1 v 1 h -1 v 1 h -1 v 2 h -1 v 1 h -1 v 1 h -1 v 1 h -1 v 1 h -1 v 1 h -1 v 2 h -1 v 1 h -1 v 1 h -1 v 2 h -1 v 1 h -1 v 1 h -1 v 2 h -1 v 1 h -1 v 2 h -1 v 2 h -1 v 1 h -1 v 2 h -1 v 1 h -1 v 2 h -1 v 2 h -1 v 2 h -1 v 2 h -1 v 2 h -1 v 2 h -1 v 2 h -1 v 2 h -1 v 2 h -1 v 3 h -1 v 2 h -1 v 3 H 9 v 3 H 8 v 2 H 7 v 4 H 6 v 3 H 5 v 4 H 4 v 4 H 3 v 5 H 2 v 6 H 1 v 6 H 0 v 35 h 1 v 8 h 1 v 6 h 1 v 5 h 1 v 4 h 1 v 4 h 1 v 3 h 1 v 3 h 1 v 3 h 1 v 3 h 1 v 3 h 1 v 2 h 1 v 3 h 1 v 2 h 1 v 2 h 1 v 2 h 1 v 2 h 1 v 2 h 1 v 2 h 1 v 2 h 1 v 2 h 1 v 2 h 1 v 1 h 1 v 2 h 1 v 1 h 1 v 2 h 1 v 1 h 1 v 2 h 1 v 1 h 1 v 2 h 1 v 1 h 1 v 1 h 1 v 2 h 1 v 1 h 1 v 1 h 1 v 1 h 1 v 1 h 1 v 2 h 1 v 1 h 1 v 1 h 1 v 1 h 1 v 1 h 1 v 2 h 1 v 1 h 1 v 1 h 1 v 1 h 1 v 1 h 2 v 1 h 1 v 1 h 1 v 1 h 1 v 1 h 1 v 1 h 1 v 1 h 1 v 1 h 1 v 1 h 1 v 1 h 1 v 1 h 1 v 1 h 2 v 1 h 1 v 1 h 1 v 1 h 2 v 1 h 1 v 1 h 2 v 1 h 1 v 1 h 2 v 1 h 1 v 1 h 2 v 1 h 1 v 1 h 2 v 1 h 1 v 1 h 2 v 1 h 2 v 1 h 2 v 1 h 2 v 1 h 2 v 1 h 2 v 1 h 2 v 1 h 2 v 1 h 2 v 1 h 2 v 1 h 3 v 1 h 3 v 1 h 2 v 1 h 3 v 1 h 3 v 1 h 3 v 1 h 3 v 1 h 5 v 1 h 5 v 1 h 5 v 1 h 5 v 1 h 10 v 1 h 25 v -1 h 9 v -1 h 6 v -1 h 6 v -1 h 4 v -1 h 3 v -1 h 4 v -1 h 4 v -1 h 3 v -1 h 3 v -1 h 2 v -1 h 3 v -1 h 3 v -1 h 2 v -1 h 15 v 1 h 11 v 1 h 10 v 1 h 10 v 1 h 9 v 1 h 8 v 1 h 9 v 1 h 7 v 1 h 7 v 1 h 8 v 1 h 7 v 1 h 6 v 1 h 5 v 1 h 6 v 1 h 6 v 1 h 6 v 1 h 5 v 1 h 4 v 1 h 5 v 1 h 5 v 1 h 4 v 1 h 5 v 1 h 4 v 1 h 3 v 1 h 4 v 1 h 4 v 1 h 3 v 1 h 4 v 1 h 3 v 1 h 3 v 1 h 3 v 1 h 3 v 1 h 3 v 1 h 3 v 1 h 2 v 1 h 3 v 1 h 2 v 1 h 2 v 1 h 2 v 1 h 2 v 1 h 2 v 1 h 2 v 1 h 2 v 1 h 1 v 1 h 2 v 1 h 1 v 1 h 2 v 1 h 1 v 1 h 2 v 1 h 1 v 1 h 2 v 1 h 1 v 1 h 1 v 1 h 2 v 1 h 1 v 1 h 1 v 1 h 2 v 1 h 1 v 1 h 1 v 1 h 1 v 1 h 1 v 1 h 2 v 1 h 1 v 1 h 1 v 1 h 1 v 1 h 1 v 1 h 2 v 1 h 1 v 1 h 1 v 1 h 1 v 1 h 1 v 1 h 1 v 1 h 1 v 1 h 1 v 1 h 1 v 1 h 1 v 1 h 1 v 1 h 1 v 1 h 1 v 1 h 1 v 1 h 2 v 1 h 1 v 1 h 1 v 1 h 1 v 1 h 1 v 1 h 1 v 1 h 1 v 1 h 1 v 1 h 1 v 1 h 1 v 2 h 1 v 1 h 1 v 1 h 1 v 1 h 1 v 1 h 1 v 1 h 1 v 1 h 1 v 1 h 1 v 1 h 1 v 1 h 1 v 1 h 1 v 1 h 1 v 1 h 1 v 1 h 1 v 1 h 1 v 2 h 1 v 1 h 1 v 1 h 1 v 1 h 1 v 1 h 1 v 1 h 1 v 1 h 1 v 1 h 1 v 1 h 1 v 2 h 1 v 1 h 1 v 1 h 1 v 1 h 1 v 1 h 1 v 1 h 1 v 2 h 1 v 1 h 1 v 1 h 1 v 1 h 1 v 1 h 1 v 1 h 1 v 2 h 1 v 1 h 1 v 1 h 1 v 1 h 1 v 1 h 1 v 2 h 1 v 1 h 1 v 1 h 1 v 1 h 1 v 1 h 1 v 2 h 1 v 1 h 1 v 1 h 1 v 1 h 1 v 2 h 1 v 1 h 1 v 1 h 1 v 1 h 1 v 2 h 1 v 1 h 1 v 1 h 1 v 1 h 1 v 2 h 1 v 1 h 1 v 1 h 1 v 2 h 1 v 1 h 1 v 1 h 1 v 1 h 1 v 2 h 1 v 1 h 1 v 1 h 1 v 2 h 1 v 1 h 1 v 1 h 1 v 2 h 1 v 1 h 1 v 1 h 1 v 2 h 1 v 1 h 1 v 1 h 1 v 2 h 1 v 1 h 1 v 1 h 1 v 2 h 1 v 1 h 1 v 1 h 1 v 2 h 1 v 1 h 1 v 2 h -1 v 13 h -1 v 25 h 1 v 12 h 1 v 11 h 1 v 6 h 1 v 4 h 1 v 4 h 1 v 4 h 1 v 4 h 1 v 4 h 1 v 4 h 1 v 4 h 1 v 3 h 1 v 2 h 1 v 3 h 1 v 2 h 1 v 3 h 1 v 2 h 1 v 3 h 1 v 2 h 1 v 3 h 1 v 2 h 1 v 2 h 1 v 2 h 1 v 2 h 1 v 2 h 1 v 2 h 1 v 2 h 1 v 2 h 1 v 1 h 1 v 2 h 1 v 1 h 1 v 2 h 1 v 1 h 1 v 2 h 1 v 1 h 1 v 2 h 1 v 2 h 1 v 1 h 1 v 2 h 1 v 1 h 1 v 2 h 1 v 1 h 1 v 1 h 1 v 1 h 1 v 1 h 1 v 2 h 1 v 1 h 1 v 1 h 1 v 1 h 1 v 1 h 1 v 2 h 1 v 1 h 1 v 1 h 1 v 1 h 1 v 1 h 1 v 2 h 1 v 1 h 1 v 1 h 1 v 1 h 1 v 1 h 1 v 1 h 1 v 1 h 1 v 1 h 1 v 1 h 1 v 1 h 1 v 1 h 1 v 1 h 1 v 1 h 1 v 1 h 1 v 1 h 2 v 1 h 1 v 1 h 1 v 1 h 1 v 1 h 1 v 1 h 1 v 1 h 1 v 1 h 1 v 1 h 1 v 1 h 1 v 1 h 2 v 1 h 1 v 1 h 2 v 1 h 1 v 1 h 2 v 1 h 1 v 1 h 2 v 1 h 1 v 1 h 1 v 1 h 2 v 1 h 1 v 1 h 2 v 1 h 1 v 1 h 2 v 1 h 1 v 1 h 2 v 1 h 1 v 1 h 2 v 1 h 2 v 1 h 2 v 1 h 2 v 1 h 2 v 1 h 2 v 1 h 2 v 1 h 2 v 1 h 2 v 1 h 2 v 1 h 2 v 1 h 2 v 1 h 2 v 1 h 3 v 1 h 3 v 1 h 3 v 1 h 3 v 1 h 3 v 1 h 3 v 1 h 2 v 1 h 3 v 1 h 3 v 1 h 5 v 1 h 5 v 1 h 5 v 1 h 5 v 1 h 4 v 1 h 6 v 1 h 12 v 1 h 32 v -1 h 11 v -1 h 6 v -1 h 5 v -1 h 6 v -1 h 5 v -1 h 4 v -1 h 3 v -1 h 3 v -1 h 4 v -1 h 3 v -1 h 3 v -1 h 3 v -1 h 4 v -1 h 2 v -1 h 2 v -1 h 3 v -1 h 2 v -1 h 2 v -1 h 3 v -1 h 2 v -1 h 2 v -1 h 2 v -1 h 2 v -1 h 2 v -1 h 2 v -1 h 2 v -1 h 2 v -1 h 1 v -1 h 2 v -1 h 1 v -1 h 2 v -1 h 2 v -1 h 1 v -1 h 2 v -1 h 2 v -1 h 1 v -1 h 1 v -1 h 2 v -1 h 1 v -1 h 1 v -1 h 2 v -1 h 1 v -1 h 1 v -1 h 2 v -1 h 1 v -1 h 2 v -1 h 1 v -1 h 1 v -1 h 1 v -1 h 1 v -1 h 1 v -1 h 2 v -1 h 1 v -1 h 1 v -1 h 1 v -1 h 1 v -1 h 1 v -1 h 1 v -1 h 1 v -1 h 2 v -1 h 1 v -1 h 1 v -1 h 1 v -2 h 1 v -1 h 1 v -1 h 1 v -1 h 1 v -1 h 1 v -1 h 1 v -1 h 1 v -1 h 1 v -1 h 1 v -1 h 1 v -1 h 1 v -2 h 1 v -1 h 1 v -1 h 1 v -1 h 1 v -2 h 1 v -1 h 1 v -1 h 1 v -2 h 1 v -1 h 1 v -1 h 1 v -2 h 1 v -1 h 1 v -1 h 1 v -2 h 1 v -1 h 1 v -2 h 1 v -2 h 1 v -1 h 1 v -2 h 1 v -2 h 1 v -1 h 1 v -2 h 1 v -2 h 1 v -1 h 1 v -2 h 1 v -2 h 1 v -2 h 1 v -2 h 1 v -2 h 1 v -2 h 1 v -2 h 1 v -2 h 1 v -2 h 1 v -3 h 1 v -2 h 1 v -3 h 1 v -3 h 1 v -2 h 1 v -3 h 1 v -3 h 1 v -3 h 1 v -3 h 1 v -4 h 1 v -4 h 1 v -4 h 1 v -4 h 1 v -5 h 1 v -6 h 1 v -6 h 1 v -10 h 1 v -39 h -1 v -8 h -1 v -7 h -1 v -6 h -1 v -4 h -1 v -4 h -1 v -5 h -1 v -4 h -1 v -3 h -1 v -3 h -1 v -3 h -1 v -3 h -1 v -3 h -1 v -3 h -1 v -3 h -1 v -2 h -1 v -3 h -1 v -2 h -1 v -2 h -1 v -2 h -1 v -3 h -1 v -2 h -1 v -2 h -1 v -2 h -1 v -2 h -1 v -1 h -1 v -2 h -1 v -2 h -1 v -1 h -1 v -2 h -1 v -2 h -1 v -2 h -1 v -2 h -1 v -2 h -1 v -2 h -1 v -2 h -1 v -3 h -1 v -2 h -1 v -2 h -1 v -3 h -1 v -3 h -1 v -2 h -1 v -3 h -1 v -3 h -1 v -3 h -1 v -3 h -1 v -3 h -1 v -4 h -1 v -4 h -1 v -4 h -1 v -4 h -1 v -4 h -1 v -5 h -1 v -5 h -1 v -7 h -1 v -7 h -1 v -8 h -1 v -15 h -1 v -29 h 1 v -13 h 1 v -10 h 1 v -6 h 1 v -7 h 1 v -7 h 1 v -5 h 1 v -4 h 1 v -4 h 1 v -5 h 1 v -4 h 1 v -4 h 1 v -4 h 1 v -3 h 1 v -3 h 1 v -3 h 1 v -3 h 1 v -4 h 1 v -3 h 1 v -3 h 1 v -3 h 1 v -3 h 1 v -2 h 1 v -3 h 1 v -2 h 1 v -3 h 1 v -3 h 1 v -2 h 1 v -3 h 1 v -2 h 1 v -2 h 1 v -3 h 1 v -2 h 1 v -2 h 1 v -2 h 1 v -2 h 1 v -2 h 1 v -2 h 1 v -2 h 1 v -2 h 1 v -1 h 1 v -2 h 1 v -2 h 1 v -1 h 1 v -2 h 1 v -2 h 1 v -2 h 1 v -1 h 1 v -2 h 1 v -1 h 1 v -2 h 1 v -1 h 1 v -2 h 1 v -1 h 1 v -2 h 1 v -1 h 1 v -1 h 1 v -2 h 1 v -1 h 1 v -1 h 1 v -2 h 1 v -1 h 1 v -1 h 1 v -2 h 1 v -1 h 1 v -1 h 1 v -2 h 1 v -1 h 1 v -1 h 1 v -1 h 1 v -1 h 1 v -2 h 1 v -1 h 1 v -1 h 1 v -1 h 1 v -1 h 1 v -1 h 1 v -2 h 1 v -1 h 1 v -1 h 1 v -1 h 1 v -1 h 1 v -1 h 1 v -1 h 1 v -1 h 1 v -1 h 1 v -1 h 1 v -1 h 1 v -1 h 1 v -1 h 1 v -1 h 1 v -1 h 1 v -1 h 1 v -1 h 1 v -1 h 1 v -1 h 1 v -1 h 1 v -1 h 1 v -1 h 1 v -1 h 1 v -1 h 1 v -1 h 1 v -1 h 1 v -1 h 1 v -1 h 1 v -1 h 1 v -1 h 1 v -1 h 1 v -1 h 1 v -1 h 2 v -1 h 1 v -1 h 1 v -1 h 1 v -1 h 1 v -1 h 1 v -1 h 1 v -1 h 2 v -1 h 1 v -1 h 1 v -1 h 1 v -1 h 1 v -1 h 2 v -1 h 1 v -1 h 1 v -1 h 1 v -1 h 1 v -1 h 2 v -1 h 1 v -1 h 1 v -1 h 2 v -1 h 1 v -1 h 1 v -1 h 1 v -1 h 2 v -1 h 1 v -1 h 1 v -1 h 2 v -1 h 1 v -1 h 2 v -1 h 1 v -1 h 1 v -1 h 2 v -1 h 1 v -1 h 2 v -1 h 1 v -1 h 2 v -1 h 1 v -1 h 2 v -1 h 1 v -1 h 2 v -1 h 1 v -1 h 2 v -1 h 1 v -1 h 2 v -1 h 2 v -1 h 1 v -1 h 2 v -1 h 2 v -1 h 2 v -1 h 1 v -1 h 2 v -1 h 2 v -1 h 2 v -1 h 2 v -1 h 2 v -1 h 2 v -1 h 3 v -1 h 2 v -1 h 3 v -1 h 2 v -1 h 2 v -1 h 3 v -1 h 2 v -1 h 3 v -1 h 2 v -1 h 2 v -1 h 1 v -1 h 2 v -1 h 2 v -1 h 1 v -1 h 2 v -1 h 2 v -1 h 1 v -1 h 2 v -1 h 1 v -1 h 1 v -1 h 2 v -1 h 1 v -1 h 1 v -1 h 2 v -1 h 1 v -1 h 2 v -1 h 1 v -1 h 1 v -1 h 1 v -1 h 1 v -1 h 1 v -1 h 1 v -1 h 1 v -1 h 1 v -1 h 2 v -1 h 1 v -1 h 1 v -1 h 1 v -1 h 1 v -2 h 1 v -1 h 1 v -1 h 1 v -1 h 1 v -1 h 1 v -1 h 1 v -1 h 1 v -1 h 1 v -2 h 1 v -1 h 1 v -1 h 1 v -2 h 1 v -1 h 1 v -1 h 1 v -2 h 1 v -1 h 1 v -1 h 1 v -2 h 1 v -2 h 1 v -1 h 1 v -2 h 1 v -2 h 1 v -1 h 1 v -2 h 1 v -2 h 1 v -2 h 1 v -2 h 1 v -2 h 1 v -2 h 1 v -2 h 1 v -2 h 1 v -3 h 1 v -2 h 1 v -3 h 1 v -3 h 1 v -3 h 1 v -3 h 1 v -4 h 1 v -4 h 1 v -4 h 1 v -5 h 1 v -7 h 1 v -41 h -1 v -8 h -1 v -4 h -1 v -4 h -1 v -4 h -1 v -4 h -1 v -3 h -1 v -3 h -1 v -3 h -1 v -3 h -1 v -2 h -1 v -3 h -1 v -2 h -1 v -2 h -1 v -2 h -1 v -2 h -1 v -2 h -1 v -2 h -1 v -2 h -1 v -2 h -1 v -2 h -1 v -1 h -1 v -2 h -1 v -1 h -1 v -2 h -1 v -1 h -1 v -2 h -1 v -1 h -1 v -2 h -1 v -1 h -1 v -1 h -1 v -1 h -1 v -2 h -1 v -1 h -1 v -1 h -1 v -1 h -1 v -1 h -1 v -2 h -1 v -1 h -1 v -1 h -1 v -1 h -1 v -2 h -1 v -1 h -2 v -1 h -1 v -1 h -1 v -1 h -1 v -1 h -1 v -1 h -1 v -1 h -1 v -1 h -1 v -1 h -1 v -1 h -1 v -1 h -1 v -1 h -2 v -1 h -1 v -1 h -1 v -1 h -1 v -1 h -2 v -1 h -1 v -1 h -2 v -1 h -1 v -1 h -2 v -1 h -1 v -1 h -1 v -1 h -2 v -1 h -1 v -1 h -2 v -1 h -1 v -1 h -2 v -1 h -2 v -1 h -2 v -1 h -2 v -1 h -2 v -1 h -2 v -1 h -2 v -1 h -2 v -1 h -2 v -1 h -3 v -1 h -3 v -1 h -3 v -1 h -2 v -1 h -3 v -1 h -3 v -1 h -3 v -1 h -5 v -1 h -5 v -1 h -5 v -1 h -5 v -1 h -10 v -1 h -24 v 1 h -9 v 1 h -6 v 1 h -5 v 1 h -5 v 1 h -3 v 1 h -4 v 1 h -3 v 1 h -3 v 1 h -3 v 1 h -3 v 1 h -2 v 1 h -3 v 1 h -2 v 1 h -3 v 1 h -2 v 1 h -2 v 1 h -2 v 1 h -2 v 1 h -1 v 1 h -2 v 1 h -2 v 1 h -1 v 1 h -2 v 1 h -1 v 1 h -2 v 1 h -2 v 1 h -1 v 1 h -1 v 1 h -2 v 1 h -1 v 1 h -1 v 1 h -2 v 1 h -1 v 1 h -1 v 1 h -1 v 1 h -2 v 1 h -1 v 1 h -1 v 1 h -25 v -1 h -11 v -1 h -9 v -1 h -7 v -1 h -6 v -1 h -6 v -1 h -5 v -1 h -5 v -1 h -5 v -1 h -4 v -1 h -5 v -1 h -4 v -1 h -4 v -1 h -4 v -1 h -3 v -1 h -4 v -1 h -3 v -1 h -3 v -1 h -4 v -1 h -3 v -1 h -3 v -1 h -3 v -1 h -3 v -1 h -3 v -1 h -3 v -1 h -2 v -1 h -3 v -1 h -2 v -1 h -3 v -1 h -2 v -1 h -3 v -1 h -2 v -1 h -3 v -1 h -2 v -1 h -2 v -1 h -3 v -1 h -2 v -1 h -2 v -1 h -2 v -1 h -2 v -1 h -2 v -1 h -2 v -1 h -3 v -1 h -2 v -1 h -2 v -1 h -2 v -1 h -2 v -1 h -2 v -1 h -1 v -1 h -2 v -1 h -2 v -1 h -2 v -1 h -2 v -1 h -2 v -1 h -1 v -1 h -2 v -1 h -2 v -1 h -2 v -1 h -1 v -1 h -2 v -1 h -2 v -1 h -1 v -1 h -2 v -1 h -1 v -1 h -2 v -1 h -2 v -1 h -1 v -1 h -2 v -1 h -1 v -1 h -2 v -1 h -1 v -1 h -2 v -1 h -1 v -1 h -2 v -1 h -2 v -1 h -1 v -1 h -2 v -1 h -1 v -1 h -2 v -1 h -1 v -1 h -1 v -1 h -2 v -1 h -1 v -1 h -2 v -1 h -1 v -1 h -1 v -1 h -2 v -1 h -1 v -1 h -1 v -1 h -2 v -1 h -1 v -1 h -1 v -1 h -2 v -1 h -1 v -1 h -1 v -1 h -2 v -1 h -1 v -1 h -1 v -1 h -1 v -1 h -2 v -1 h -1 v -1 h -1 v -1 h -1 v -1 h -2 v -1 h -1 v -1 h -1 v -1 h -1 v -1 h -1 v -1 h -2 v -1 h -1 v -1 h -1 v -1 h -1 v -1 h -1 v -1 h -1 v -1 h -2 v -1 h -1 v -1 h -1 v -1 h -1 v -1 h -1 v -1 h -1 v -1 h -1 v -1 h -1 v -1 h -1 v -1 h -1 v -1 h -1 v -1 h -1 v -1 h -2 v -1 h -1 v -1 h -1 v -1 h -1 v -1 h -1 v -1 h -1 v -1 h -1 v -1 h -1 v -1 h -1 v -1 h -1 v -1 h -1 v -2 h -1 v -1 h -1 v -1 h -1 v -1 h -1 v -1 h -1 v -1 h -1 v -1 h -1 v -1 h -1 v -1 h -1 v -1 h -1 v -1 h -1 v -1 h -1 v -2 h -1 v -1 h -1 v -1 h -1 v -1 h -1 v -1 h -1 v -1 h -1 v -2 h -1 v -1 h -1 v -1 h -1 v -1 h -1 v -2 h -1 v -1 h -1 v -1 h -1 v -1 h -1 v -2 h -1 v -1 h -1 v -1 h -1 v -2 h -1 v -1 h -1 v -2 h -1 v -1 h -1 v -2 h -1 v -1 h -1 v -2 h -1 v -1 h -1 v -6 h -1 v -5 h -1 v -5 h -1 v -5 h -1 v -5 h -1 v -4 h -1 v -2 h -1 v -3 h -1 v -3 h -1 v -2 h -1 v -3 h -1 v -3 h -1 v -2 h -1 v -3 h -1 v -2 h -1 v -1 h -1 v -2 h -1 v -2 h -1 v -2 h -1 v -2 h -1 v -1 h -1 v -2 h -1 v -1 h -1 v -2 h -1 v -1 h -1 v -2 h -1 v -1 h -1 v -1 h -1 v -2 h -1 v -1 h -1 v -1 h -1 v -1 h -1 v -1 h -1 v -2 h -1 v -1 h -1 v -1 h -1 v -1 h -1 v -1 h -1 v -2 h -2 v -1 h -1 v -1 h -1 v -1 h -1 v -1 h -1 v -1 h -1 v -1 h -1 v -1 h -1 v -1 h -1 v -1 h -1 v -1 h -1 v -1 h -2 v -1 h -1 v -1 h -1 v -1 h -2 v -1 h -1 v -1 h -2 v -1 h -1 v -1 h -2 v -1 h -1 v -1 h -1 v -1 h -2 v -1 h -1 v -1 h -2 v -1 h -2 v -1 h -2 v -1 h -2 v -1 h -2 v -1 h -2 v -1 h -2 v -1 h -2 v -1 h -2 v -1 h -3 V 9 h -3 V 8 h -3 V 7 h -3 V 6 h -2 V 5 h -3 V 4 h -5 V 3 h -5 V 2 h -5 V 1 h -7 V 0 Z m 124,231 v -1 h 8 v 1 h 8 v 1 h 7 v 1 h 6 v 1 h 6 v 1 h 6 v 1 h 6 v 1 h 6 v 1 h 5 v 1 h 5 v 1 h 5 v 1 h 5 v 1 h 4 v 1 h 5 v 1 h 4 v 1 h 5 v 1 h 4 v 1 h 4 v 1 h 4 v 1 h 3 v 1 h 4 v 1 h 4 v 1 h 3 v 1 h 4 v 1 h 3 v 1 h 3 v 1 h 3 v 1 h 3 v 1 h 3 v 1 h 4 v 1 h 2 v 1 h 3 v 1 h 3 v 1 h 2 v 1 h 3 v 1 h 2 v 1 h 3 v 1 h 2 v 1 h 2 v 1 h 3 v 1 h 2 v 1 h 2 v 1 h 2 v 1 h 2 v 1 h 2 v 1 h 2 v 1 h 2 v 1 h 1 v 1 h 2 v 1 h 2 v 1 h 2 v 1 h 1 v 1 h 2 v 1 h 1 v 1 h 2 v 1 h 2 v 1 h 1 v 1 h 2 v 1 h 1 v 1 h 2 v 1 h 1 v 1 h 2 v 1 h 1 v 1 h 2 v 1 h 1 v 1 h 2 v 1 h 1 v 1 h 2 v 1 h 1 v 1 h 2 v 1 h 1 v 1 h 2 v 1 h 1 v 1 h 1 v 1 h 2 v 1 h 1 v 1 h 1 v 1 h 2 v 1 h 1 v 1 h 2 v 1 h 1 v 1 h 1 v 1 h 2 v 1 h 1 v 1 h 1 v 1 h 2 v 1 h 1 v 1 h 1 v 1 h 2 v 1 h 1 v 1 h 1 v 1 h 2 v 1 h 1 v 1 h 1 v 1 h 2 v 1 h 1 v 1 h 1 v 1 h 1 v 1 h 2 v 1 h 1 v 1 h 1 v 1 h 2 v 1 h 1 v 1 h 1 v 1 h 2 v 1 h 1 v 1 h 1 v 1 h 1 v 1 h 2 v 1 h 1 v 1 h 1 v 1 h 1 v 1 h 2 v 1 h 1 v 1 h 1 v 1 h 1 v 1 h 2 v 1 h 1 v 1 h 1 v 1 h 1 v 1 h 2 v 1 h 1 v 1 h 1 v 1 h 1 v 1 h 1 v 1 h 2 v 1 h 1 v 1 h 1 v 1 h 1 v 1 h 1 v 1 h 2 v 1 h 1 v 1 h 1 v 1 h 1 v 1 h 2 v 1 h 1 v 1 h 1 v 1 h 1 v 1 h 1 v 1 h 2 v 1 h 1 v 1 h 1 v 1 h 1 v 1 h 1 v 1 h 1 v 1 h 2 v 1 h 1 v 1 h 1 v 1 h 1 v 1 h 1 v 1 h 2 v 1 h 1 v 1 h 1 v 1 h 1 v 1 h 1 v 1 h 1 v 1 h 2 v 1 h 1 v 1 h 1 v 1 h 1 v 1 h 1 v 2 h -1 v 7 h 1 v 16 h 1 v 9 h 1 v 6 h 1 v 5 h 1 v 5 h 1 v 5 h 1 v 3 h 1 v 4 h 1 v 4 h 1 v 4 h 1 v 3 h 1 v 3 h 1 v 3 h 1 v 3 h 1 v 3 h 1 v 3 h 1 v 2 h 1 v 2 h 1 v 3 h 1 v 2 h 1 v 3 h 1 v 2 h 1 v 2 h 1 v 2 h 1 v 2 h 1 v 2 h 1 v 2 h 1 v 2 h 1 v 2 h 1 v 1 h 1 v 2 h 1 v 2 h 1 v 1 h 1 v 2 h 1 v 10 h 1 v 20 h 1 v 69 h -1 v 18 h -1 v 12 h -1 v 9 h -1 v 9 h -1 v 6 h -1 v 7 h -1 v 5 h -1 v 5 h -1 v 5 h -1 v 4 h -1 v 4 h -1 v 3 h -1 v 4 h -1 v 3 h -1 v 2 h -1 v 2 h -1 v 2 h -1 v 2 h -1 v 2 h -1 v 2 h -1 v 2 h -1 v 1 h -1 v 2 h -1 v 2 h -1 v 1 h -1 v 2 h -1 v 2 h -1 v 1 h -1 v 1 h -1 v 2 h -1 v 1 h -1 v 2 h -1 v 1 h -1 v 1 h -1 v 2 h -1 v 1 h -1 v 1 h -1 v 2 h -1 v 1 h -1 v 1 h -1 v 1 h -1 v 1 h -1 v 2 h -1 v 1 h -1 v 1 h -1 v 1 h -1 v 1 h -1 v 1 h -1 v 2 h -1 v 1 h -1 v 1 h -1 v 1 h -1 v 1 h -1 v 1 h -1 v 1 h -1 v 1 h -1 v 1 h -1 v 1 h -1 v 2 h -1 v 1 h -1 v 1 h -1 v 1 h -1 v 1 h -1 v 1 h -1 v 1 h -1 v 1 h -1 v 1 h -1 v 1 h -1 v 1 h -1 v 1 h -1 v 1 h -1 v 1 h -1 v 1 h -1 v 1 h -1 v 1 h -1 v 1 h -1 v 1 h -1 v 1 h -1 v 1 h -1 v 1 h -1 v 1 h -1 v 1 h -1 v 1 h -1 v 1 h -1 v 1 h -1 v 1 h -2 v 1 h -1 v 1 h -1 v 1 h -1 v 1 h -1 v 1 h -1 v 1 h -1 v 1 h -1 v 1 h -1 v 1 h -1 v 1 h -1 v 1 h -1 v 1 h -2 v 1 h -1 v 1 h -1 v 1 h -1 v 1 h -1 v 1 h -1 v 1 h -1 v 1 h -1 v 1 h -2 v 1 h -1 v 1 h -1 v 1 h -1 v 1 h -1 v 1 h -1 v 1 h -1 v 1 h -2 v 1 h -1 v 1 h -1 v 1 h -1 v 1 h -1 v 1 h -1 v 1 h -2 v 1 h -1 v 1 h -1 v 1 h -1 v 1 h -1 v 1 h -2 v 1 h -1 v 1 h -1 v 1 h -1 v 1 h -1 v 1 h -2 v 1 h -1 v 1 h -1 v 1 h -1 v 1 h -1 v 1 h -2 v 1 h -1 v 1 h -1 v 1 h -1 v 1 h -1 v 1 h -2 v 1 h -1 v 1 h -1 v 1 h -1 v 1 h -2 v 1 h -1 v 1 h -1 v 1 h -1 v 1 h -2 v 1 h -1 v 1 h -1 v 1 h -1 v 1 h -2 v 1 h -1 v 1 h -1 v 1 h -2 v 1 h -1 v 1 h -1 v 1 h -1 v 1 h -2 v 1 h -1 v 1 h -1 v 1 h -2 v 1 h -1 v 1 h -1 v 1 h -2 v 1 h -1 v 1 h -1 v 1 h -2 v 1 h -1 v 1 h -1 v 1 h -1 v 1 h -2 v 1 h -1 v 1 h -1 v 1 h -2 v 1 h -1 v 1 h -2 v 1 h -1 v 1 h -1 v 1 h -2 v 1 h -3 v 1 h -8 v 1 h -6 v 1 h -6 v 1 h -4 v 1 h -4 v 1 h -5 v 1 h -4 v 1 h -3 v 1 h -3 v 1 h -3 v 1 h -3 v 1 h -3 v 1 h -3 v 1 h -3 v 1 h -2 v 1 h -2 v 1 h -3 v 1 h -2 v 1 h -2 v 1 h -2 v 1 h -3 v 1 h -2 v 1 h -2 v 1 h -1 v 1 h -2 v 1 h -2 v 1 h -2 v 1 h -1 v 1 h -2 v 1 h -2 v 1 h -1 v 1 h -2 v 1 h -2 v 1 h -1 v 1 h -1 v 1 h -2 v 1 h -1 v 1 h -2 v 1 h -1 v 1 h -2 v 1 h -1 v 1 h -1 v 1 h -2 v 1 h -45 v -1 h -17 v -1 h -14 v -1 h -9 v -1 h -10 v -1 h -8 v -1 h -7 v -1 h -7 v -1 h -7 v -1 h -6 v -1 h -5 v -1 h -6 v -1 h -5 v -1 h -5 v -1 h -5 v -1 h -3 v -1 h -4 v -1 h -4 v -1 h -4 v -1 h -4 v -1 h -4 v -1 h -3 v -1 h -4 v -1 h -3 v -1 h -3 v -1 h -3 v -1 h -3 v -1 h -3 v -1 h -2 v -1 h -3 v -1 h -3 v -1 h -2 v -1 h -2 v -1 h -3 v -1 h -2 v -1 h -2 v -1 h -2 v -1 h -2 v -1 h -2 v -1 h -2 v -1 h -2 v -1 h -2 v -1 h -1 v -1 h -2 v -1 h -2 v -1 h -2 v -1 h -1 v -1 h -2 v -1 h -2 v -1 h -2 v -1 h -1 v -1 h -2 v -1 h -2 v -1 h -1 v -1 h -2 v -1 h -1 v -1 h -2 v -1 h -1 v -1 h -2 v -1 h -1 v -1 h -1 v -1 h -2 v -1 h -1 v -1 h -2 v -1 h -1 v -1 h -2 v -1 h -1 v -1 h -2 v -1 h -1 v -1 h -1 v -1 h -1 v -1 h -2 v -1 h -1 v -1 h -1 v -1 h -2 v -1 h -1 v -1 h -1 v -1 h -2 v -1 h -1 v -1 h -1 v -1 h -1 v -1 h -2 v -1 h -1 v -1 h -1 v -1 h -1 v -1 h -1 v -1 h -2 v -1 h -1 v -1 h -1 v -1 h -1 v -1 h -1 v -1 h -2 v -1 h -1 v -1 h -1 v -1 h -1 v -1 h -1 v -1 h -2 v -1 h -1 v -1 h -1 v -1 h -1 v -1 h -1 v -1 h -1 v -1 h -1 v -1 h -2 v -1 h -1 v -1 h -1 v -1 h -1 v -1 h -1 v -1 h -1 v -1 h -1 v -1 h -2 v -1 h -1 v -1 h -1 v -1 h -1 v -1 h -1 v -1 h -1 v -1 h -1 v -1 h -1 v -1 h -2 v -1 h -1 v -1 h -1 v -1 h -1 v -1 h -1 v -1 h -1 v -1 h -1 v -1 h -1 v -1 h -2 v -1 h -1 v -1 h -1 v -1 h -1 v -1 h -1 v -1 h -1 v -1 h -2 v -1 h -1 v -1 h -1 v -1 h -1 v -1 h -1 v -1 h -1 v -1 h -1 v -1 h 1 v -3 h 1 v -3 h 1 v -3 h 1 v -3 h 1 v -4 h 1 v -4 h 1 v -5 h 1 v -4 h 1 v -8 h 1 v -8 h 1 v -25 h -1 v -10 h -1 v -6 h -1 v -5 h -1 v -5 h -1 v -4 h -1 v -3 h -1 v -3 h -1 v -3 h -1 v -3 h -1 v -3 h -1 v -3 h -1 v -2 h -1 v -2 h -1 v -3 h -1 v -2 h -1 v -2 h -1 v -2 h -1 v -2 h -1 v -1 h -1 v -2 h -1 v -2 h -1 v -2 h -1 v -1 h -1 v -2 h -1 v -4 h 1 v -9 h 1 v -8 h 1 v -8 h 1 v -6 h 1 v -7 h 1 v -6 h 1 v -6 h 1 v -5 h 1 v -6 h 1 v -5 h 1 v -5 h 1 v -5 h 1 v -4 h 1 v -5 h 1 v -4 h 1 v -4 h 1 v -5 h 1 v -4 h 1 v -4 h 1 v -4 h 1 v -3 h 1 v -4 h 1 v -4 h 1 v -3 h 1 v -4 h 1 v -3 h 1 v -3 h 1 v -4 h 1 v -3 h 1 v -3 h 1 v -3 h 1 v -3 h 1 v -3 h 1 v -3 h 1 v -3 h 1 v -3 h 1 v -2 h 1 v -3 h 1 v -3 h 1 v -2 h 1 v -3 h 1 v -3 h 1 v -2 h 1 v -2 h 1 v -3 h 1 v -2 h 1 v -3 h 1 v -2 h 1 v -2 h 1 v -3 h 1 v -2 h 1 v -2 h 1 v -2 h 1 v -2 h 1 v -2 h 1 v -3 h 1 v -2 h 1 v -2 h 1 v -2 h 1 v -2 h 1 v -2 h 1 v -2 h 1 v -1 h 1 v -2 h 1 v -2 h 1 v -2 h 1 v -2 h 1 v -2 h 1 v -1 h 1 v -2 h 1 v -1 h 1 v -2 h 1 v -1 h 1 v -2 h 1 v -1 h 1 v -1 h 1 v -1 h 1 v -2 h 1 v -1 h 1 v -1 h 1 v -2 h 1 v -1 h 1 v -1 h 1 v -1 h 1 v -1 h 1 v -2 h 1 v -1 h 1 v -1 h 1 v -1 h 1 v -1 h 1 v -1 h 1 v -1 h 1 v -1 h 1 v -1 h 1 v -1 h 1 v -1 h 1 v -2 h 1 v -1 h 1 v -1 h 1 v -1 h 1 v -1 h 1 v -1 h 1 v -1 h 1 v -1 h 1 v -1 h 1 v -1 h 1 v -1 h 1 v -1 h 1 v -1 h 1 v -1 h 2 v -1 h 1 v -1 h 1 v -1 h 1 v -1 h 1 v -1 h 1 v -1 h 1 v -1 h 1 v -1 h 1 v -1 h 1 v -1 h 1 v -1 h 1 v -1 h 2 v -1 h 1 v -1 h 1 v -1 h 1 v -1 h 1 v -1 h 1 v -1 h 1 v -1 h 1 v -1 h 2 v -1 h 1 v -1 h 1 v -1 h 1 v -1 h 1 v -1 h 2 v -1 h 1 v -1 h 1 v -1 h 1 v -1 h 1 v -1 h 1 v -1 h 2 v -1 h 1 v -1 h 1 v -1 h 1 v -1 h 1 v -1 h 2 v -1 h 1 v -1 h 1 v -1 h 1 v -1 h 2 v -1 h 1 v -1 h 1 v -1 h 1 v -1 h 2 v -1 h 1 v -1 h 1 v -1 h 1 v -1 h 2 v -1 h 1 v -1 h 1 v -1 h 1 v -1 h 2 v -1 h 1 v -1 h 1 v -1 h 2 v -1 h 1 v -1 h 1 v -1 h 2 v -1 h 1 v -1 h 1 v -1 h 1 v -1 h 2 v -1 h 1 v -1 h 1 v -1 h 2 v -1 h 1 v -1 h 1 v -1 h 2 v -1 h 1 v -1 h 1 v -1 h 2 v -1 h 1 v -1 h 2 v -1 h 1 v -1 h 1 v -1 h 2 v -1 h 1 v -1 h 1 v -1 h 2 v -1 h 1 v -1 h 2 v -1 h 1 v -1 h 1 v -1 h 2 v -1 h 1 v -1 h 2 v -1 h 1 v -1 h 8 v -1 h 7 v -1 h 5 v -1 h 5 v -1 h 4 v -1 h 3 v -1 h 3 v -1 h 3 v -1 h 3 v -1 h 3 v -1 h 2 v -1 h 2 v -1 h 3 v -1 h 2 v -1 h 2 v -1 h 2 v -1 h 2 v -1 h 2 v -1 h 1 v -1 h 2 v -1 h 1 v -1 h 2 v -1 h 2 v -1 h 1 v -1 h 1 v -1 h 2 v -1 h 1 v -1 h 2 v -1 h 1 v -1 h 1 v -1 h 2 v -1 h 1 v -1 h 1 v -1 h 1 v -1 h 1 v -1 h 1 v -1 h 1 v -1 h 1 v -1 h 2 v -1 h 1 v -1 h 1 v -1 h 1 v -1 h 1 v -1 h 1 v -2 h 1 v -1 h 1 v -1 h 1 v -1" />
            </g>
          </g>
        </g>
      </g>
    </g>
    <g
       transform="matrix(0.65020563,0,0,-0.626896,-585.4203,-49.984235)"
       inkscape:label="HexagonFab_Triangle_Module"
       id="g4712-1-3-8">
      <g
         transform="scale(0.072)"
         id="g4714-4-0-5">
        <g
           id="g4716-8-3-8">
          <g
             clip-path="url(#clipPath4722-5-0-3)"
             id="g4718-9-0-9">
            <path
               inkscape:connector-curvature="0"
               id="path4732-0-8-77"
               style="fill:url(#linearGradient5883);fill-opacity:1;fill-rule:nonzero;stroke:none"
               d="M 831.391,0.00390625 C 797.875,0.00390625 764.43,13.332 739.703,39.707 716.996,63.9336 705.859,94.75 705.836,125.512 681.922,147.727 592.797,229.297 541.637,259.641 c -56.86,33.703 -209.094,47.957 -209.094,47.957 0,0 0.57,0.937 1.383,2.254 -37.774,-31.039 -83.809,-46.438 -129.75,-46.438 -54.422,0 -108.6994,21.621 -148.883,64.477 -77.2227,82.371 -73.0508,211.738 9.3125,288.961 39.3905,36.925 89.4965,55.086 139.5235,55.086 11.559,0 23.117,-0.969 34.535,-2.903 36.277,24.875 135.328,95.27 219.246,177.34 94.82,92.742 140.422,181.715 149.25,212.655 -4.543,51.27 13.524,104.04 53.985,141.97 33.468,31.38 76.082,46.92 118.601,46.92 46.274,0 92.438,-18.4 126.582,-54.82 65.524,-69.89 61.985,-179.66 -7.906,-245.182 0,0 -48.668,-171.164 -54.227,-289.156 -5.113,-108.434 26.922,-397.223 29.067,-414.707 18.363,-6.485 35.535,-17.254 49.777,-32.457 C 970.496,160.98 967.934,81.457 917.316,33.9844 893.066,11.2539 862.199,0 831.391,0.00390625 M 654.496,954.625 C 614.051,935.629 523.285,885.574 470.512,834.414 c -51.582,-50 -94.567,-197.539 -104.953,-241.035 37.23,-47.633 50.14,-107.551 39.496,-163.793 22.269,-25.172 101.832,-127.727 152.218,-155.148 60.266,-32.813 188.153,-57.102 188.153,-57.102 15.937,14.934 34.75,24.902 54.512,29.988 l 0.027,0.028 c 7.039,2.035 29.488,204.875 19.871,352.293 -12.586,192.804 -77.883,305.527 -77.883,305.527 l 0.055,0.023 c -32.348,7.188 -62.945,23.727 -87.512,49.43" />
          </g>
        </g>
      </g>
    </g>
    <g
       transform="matrix(0.61964869,0,0,-0.61964869,-606.0034,-38.058432)"
       inkscape:label="HexagonFab_Hexagon_Module"
       id="g4902-3-6">
      <g
         transform="scale(0.072)"
         id="g4904-9-3">
        <g
           id="g4906-7-6">
          <g
             clip-path="url(#clipPath4912-7-0)"
             id="g4908-9-6">
            <path
               inkscape:connector-curvature="0"
               id="path4924-0-6"
               style="fill:url(#linearGradient5885);fill-opacity:1;fill-rule:nonzero;stroke:none"
               d="M 598.816,0 C 560.77,0 522.547,13.2305 491.613,40.1953 443.891,81.793 426.332,145 440.535,202.496 c 0,0 -23.851,70.094 -68.844,98.945 -44.98,28.848 -120.203,56.598 -120.203,56.598 l -0.402,0.07 c -18.602,-9.636 -38.957,-14.504 -59.352,-14.504 -30.156,0 -60.398,10.641 -85.164,32.231 -54.2419,47.281 -59.8825,129.582 -12.6012,183.824 8.8362,10.133 19.1722,18 30.0512,24.711 7.668,19.559 33.867,90.074 30.855,134.063 -3.281,47.863 -46.293,132.539 -52.266,144.101 -19.3629,5.535 -37.8707,15.153 -54.0504,29.258 -58.9531,51.387 -65.082,140.827 -13.6992,199.777 28,32.12 67.2926,48.56 106.8006,48.56 33,0 66.156,-11.48 92.988,-34.86 8.161,-7.11 15.2,-15.01 21.321,-23.39 27.539,4.66 89.539,16.67 120.265,34.76 31.016,18.26 80.664,68.73 101.774,90.88 2.902,37.24 17.172,73.91 43.601,104.23 35.621,40.86 85.614,61.78 135.875,61.78 41.989,0 84.161,-14.6 118.293,-44.35 55.977,-48.8 74.477,-124.56 53.102,-191.04 11.246,-18.37 43.418,-67.64 78.871,-91.96 44.066,-30.23 97.27,-32.68 97.27,-32.68 22.03,14.43 47.19,21.67 72.48,21.67 31.48,0 63.14,-11.24 89.08,-33.85 56.36,-49.129 62.23,-134.648 13.09,-191.007 -9.81,-11.258 -32.01,-26.918 -32.01,-26.918 0,0 -40.21,-96.118 -35.96,-158.157 4.25,-62.023 39.08,-126.519 39.08,-126.519 46.87,-40.867 51.74,-111.977 10.89,-158.852 -22.15,-25.402 -53.08,-38.301 -84.26,-38.301 -23.26,0 -46.65,7.188 -66.59,21.723 C 987.531,318.691 915.793,303.543 873.641,283.605 822.816,259.57 759.762,190.789 759.762,190.789 h -0.016 C 767.707,144.145 755.461,94.4375 721.938,55.9844 689.66,18.9531 644.363,0 598.816,0 m 0.192,326.477 c 38.027,0 76.222,-13.215 107.144,-40.172 9.813,-8.559 17.965,-17.539 25.219,-27.684 0,0 99.016,15.746 141.711,41.477 36.555,22.027 85.504,62.785 98.863,74.097 -14.132,37.528 -8.23,81.285 19.965,113.633 13.29,15.231 28.96,25.731 46.77,31.969 0,0 57.22,52.613 53.7,104.058 -3.53,51.434 -54.99,144.102 -54.99,144.102 0,0 -32.44,14.297 -50.062,30.981 -70.461,67.062 -35.414,152.914 -35.672,160.296 -0.301,1.297 -24.101,43.466 -55.461,71.136 -30.203,26.66 -114.113,27.15 -120.25,27.15 -0.234,0 -0.355,0 -0.355,0 l 0.137,0.25 c -33.657,-29.43 -76.055,-44.46 -118.641,-44.46 -41.895,0 -83.973,14.56 -118.055,44.27 -19.797,17.26 -34.769,37.94 -45.093,60.33 -3.196,0.08 -6.938,0.14 -11.125,0.14 -27.516,0 -73.891,-2.44 -105.786,-17.03 -35.797,-16.37 -77.66,-56.25 -96.574,-75.39 8.047,-41.388 -2.262,-85.9 -32.113,-120.146 -11.59,-13.293 -25.172,-23.75 -39.84,-31.617 -7.516,-18.906 -38.035,-99.59 -34.305,-154.039 3.25,-47.348 24.258,-96.039 34.047,-116.48 24.914,-3.067 49.207,-13.36 69.551,-31.086 49.527,-43.188 58.012,-115.332 23.195,-168.879 10.383,-12.207 53.594,-62.445 81.758,-85.789 26.172,-21.676 84.418,-31.563 105.332,-34.504 31,28.723 70.871,43.387 110.93,43.387" />
          </g>
        </g>
      </g>
    </g>
    <g
       id="g4338">
      <g
         id="g4902"
         inkscape:label="HexagonFab_Hexagon_Module"
         transform="matrix(0.60670923,0,0,-0.60670923,73.316978,145.90218)">
        <g
           id="g4904"
           transform="scale(0.072)">
          <g
             id="g4906">
            <g
               id="g4908"
               clip-path="url(#clipPath4912)">
              <path
                 d="M 598.816,0 C 560.77,0 522.547,13.2305 491.613,40.1953 443.891,81.793 426.332,145 440.535,202.496 c 0,0 -23.851,70.094 -68.844,98.945 -44.98,28.848 -120.203,56.598 -120.203,56.598 l -0.402,0.07 c -18.602,-9.636 -38.957,-14.504 -59.352,-14.504 -30.156,0 -60.398,10.641 -85.164,32.231 -54.2419,47.281 -59.8825,129.582 -12.6012,183.824 8.8362,10.133 19.1722,18 30.0512,24.711 7.668,19.559 33.867,90.074 30.855,134.063 -3.281,47.863 -46.293,132.539 -52.266,144.101 -19.3629,5.535 -37.8707,15.153 -54.0504,29.258 -58.9531,51.387 -65.082,140.827 -13.6992,199.777 28,32.12 67.2926,48.56 106.8006,48.56 33,0 66.156,-11.48 92.988,-34.86 8.161,-7.11 15.2,-15.01 21.321,-23.39 27.539,4.66 89.539,16.67 120.265,34.76 31.016,18.26 80.664,68.73 101.774,90.88 2.902,37.24 17.172,73.91 43.601,104.23 35.621,40.86 85.614,61.78 135.875,61.78 41.989,0 84.161,-14.6 118.293,-44.35 55.977,-48.8 74.477,-124.56 53.102,-191.04 11.246,-18.37 43.418,-67.64 78.871,-91.96 44.066,-30.23 97.27,-32.68 97.27,-32.68 22.03,14.43 47.19,21.67 72.48,21.67 31.48,0 63.14,-11.24 89.08,-33.85 56.36,-49.129 62.23,-134.648 13.09,-191.007 -9.81,-11.258 -32.01,-26.918 -32.01,-26.918 0,0 -40.21,-96.118 -35.96,-158.157 4.25,-62.023 39.08,-126.519 39.08,-126.519 46.87,-40.867 51.74,-111.977 10.89,-158.852 -22.15,-25.402 -53.08,-38.301 -84.26,-38.301 -23.26,0 -46.65,7.188 -66.59,21.723 C 987.531,318.691 915.793,303.543 873.641,283.605 822.816,259.57 759.762,190.789 759.762,190.789 h -0.016 C 767.707,144.145 755.461,94.4375 721.938,55.9844 689.66,18.9531 644.363,0 598.816,0 m 0.192,326.477 c 38.027,0 76.222,-13.215 107.144,-40.172 9.813,-8.559 17.965,-17.539 25.219,-27.684 0,0 99.016,15.746 141.711,41.477 36.555,22.027 85.504,62.785 98.863,74.097 -14.132,37.528 -8.23,81.285 19.965,113.633 13.29,15.231 28.96,25.731 46.77,31.969 0,0 57.22,52.613 53.7,104.058 -3.53,51.434 -54.99,144.102 -54.99,144.102 0,0 -32.44,14.297 -50.062,30.981 -70.461,67.062 -35.414,152.914 -35.672,160.296 -0.301,1.297 -24.101,43.466 -55.461,71.136 -30.203,26.66 -114.113,27.15 -120.25,27.15 -0.234,0 -0.355,0 -0.355,0 l 0.137,0.25 c -33.657,-29.43 -76.055,-44.46 -118.641,-44.46 -41.895,0 -83.973,14.56 -118.055,44.27 -19.797,17.26 -34.769,37.94 -45.093,60.33 -3.196,0.08 -6.938,0.14 -11.125,0.14 -27.516,0 -73.891,-2.44 -105.786,-17.03 -35.797,-16.37 -77.66,-56.25 -96.574,-75.39 8.047,-41.388 -2.262,-85.9 -32.113,-120.146 -11.59,-13.293 -25.172,-23.75 -39.84,-31.617 -7.516,-18.906 -38.035,-99.59 -34.305,-154.039 3.25,-47.348 24.258,-96.039 34.047,-116.48 24.914,-3.067 49.207,-13.36 69.551,-31.086 49.527,-43.188 58.012,-115.332 23.195,-168.879 10.383,-12.207 53.594,-62.445 81.758,-85.789 26.172,-21.676 84.418,-31.563 105.332,-34.504 31,28.723 70.871,43.387 110.93,43.387"
                 style="fill:url(#linearGradient7346);fill-opacity:1;fill-rule:nonzero;stroke:none"
                 id="path4924"
                 inkscape:connector-curvature="0" />
            </g>
          </g>
        </g>
      </g>
      <g
         transform="matrix(0.69498246,0,0,0.69498246,153.7449,173.45376)"
         id="g275">
        <g
           transform="matrix(0.86862335,0,0,-0.86862335,-147.02112,-26.988715)"
           inkscape:label="HexagonFab_Hexagon_Module"
           id="g4615-4-5-20"
           style="opacity:0.61400003;fill:#f81113;fill-opacity:1">
          <g
             transform="scale(0.072)"
             id="g4617-3-3-6"
             style="fill:#f81113;fill-opacity:1">
            <g
               id="g4619-0-9-6"
               style="fill:#f81113;fill-opacity:1">
              <g
                 clip-path="url(#clipPath4625-8-4-2)"
                 id="g4621-3-2-2"
                 style="fill:#f81113;fill-opacity:1">
                <path
                   inkscape:connector-curvature="0"
                   id="path4637-9-2-6"
                   style="fill:#f81113;fill-opacity:1;fill-rule:nonzero;stroke:none"
                   d="M 598.816,0 C 560.77,0 522.547,13.2305 491.613,40.1953 443.891,81.793 426.332,145 440.535,202.496 c 0,0 -23.851,70.094 -68.844,98.945 -44.98,28.848 -120.203,56.598 -120.203,56.598 l -0.402,0.07 c -18.602,-9.636 -38.957,-14.504 -59.352,-14.504 -30.156,0 -60.398,10.641 -85.164,32.231 -54.2419,47.281 -59.8825,129.582 -12.6012,183.824 8.8362,10.133 19.1722,18 30.0512,24.711 7.668,19.559 33.867,90.074 30.855,134.063 -3.281,47.863 -46.293,132.539 -52.266,144.101 -19.3629,5.535 -37.8707,15.153 -54.0504,29.258 -58.9531,51.387 -65.082,140.827 -13.6992,199.777 28,32.12 67.2926,48.56 106.8006,48.56 33,0 66.156,-11.48 92.988,-34.86 8.161,-7.11 15.2,-15.01 21.321,-23.39 27.539,4.66 89.539,16.67 120.265,34.76 31.016,18.26 80.664,68.73 101.774,90.88 2.902,37.24 17.172,73.91 43.601,104.23 35.621,40.86 85.614,61.78 135.875,61.78 41.989,0 84.161,-14.6 118.293,-44.35 55.977,-48.8 74.477,-124.56 53.102,-191.04 11.246,-18.37 43.418,-67.64 78.871,-91.96 44.066,-30.23 97.27,-32.68 97.27,-32.68 22.03,14.43 47.19,21.67 72.48,21.67 31.48,0 63.14,-11.24 89.08,-33.85 56.36,-49.129 62.23,-134.648 13.09,-191.007 -9.81,-11.258 -32.01,-26.918 -32.01,-26.918 0,0 -40.21,-96.118 -35.96,-158.157 4.25,-62.023 39.08,-126.519 39.08,-126.519 46.87,-40.867 51.74,-111.977 10.89,-158.852 -22.15,-25.402 -53.08,-38.301 -84.26,-38.301 -23.26,0 -46.65,7.188 -66.59,21.723 C 987.531,318.691 915.793,303.543 873.641,283.605 822.816,259.57 759.762,190.789 759.762,190.789 h -0.016 C 767.707,144.145 755.461,94.4375 721.938,55.9844 689.66,18.9531 644.363,0 598.816,0 m 0.192,326.477 c 38.027,0 76.222,-13.215 107.144,-40.172 9.813,-8.559 17.965,-17.539 25.219,-27.684 0,0 99.016,15.746 141.711,41.477 36.555,22.027 85.504,62.785 98.863,74.097 -14.132,37.528 -8.23,81.285 19.965,113.633 13.29,15.231 28.96,25.731 46.77,31.969 0,0 57.22,52.613 53.7,104.058 -3.53,51.434 -54.99,144.102 -54.99,144.102 0,0 -32.44,14.297 -50.062,30.981 -70.461,67.062 -35.414,152.914 -35.672,160.296 -0.301,1.297 -24.101,43.466 -55.461,71.136 -30.203,26.66 -114.113,27.15 -120.25,27.15 -0.234,0 -0.355,0 -0.355,0 l 0.137,0.25 c -33.657,-29.43 -76.055,-44.46 -118.641,-44.46 -41.895,0 -83.973,14.56 -118.055,44.27 -19.797,17.26 -34.769,37.94 -45.093,60.33 -3.196,0.08 -6.938,0.14 -11.125,0.14 -27.516,0 -73.891,-2.44 -105.786,-17.03 -35.797,-16.37 -77.66,-56.25 -96.574,-75.39 8.047,-41.388 -2.262,-85.9 -32.113,-120.146 -11.59,-13.293 -25.172,-23.75 -39.84,-31.617 -7.516,-18.906 -38.035,-99.59 -34.305,-154.039 3.25,-47.348 24.258,-96.039 34.047,-116.48 24.914,-3.067 49.207,-13.36 69.551,-31.086 49.527,-43.188 58.012,-115.332 23.195,-168.879 10.383,-12.207 53.594,-62.445 81.758,-85.789 26.172,-21.676 84.418,-31.563 105.332,-34.504 31,28.723 70.871,43.387 110.93,43.387" />
              </g>
            </g>
          </g>
        </g>
        <rect
           style="opacity:1;fill:#ffffff;fill-opacity:1;stroke:none;stroke-width:3.17457676;stroke-miterlimit:4;stroke-dasharray:none;stroke-opacity:1"
           id="rect4995-0"
           width="22.708168"
           height="26.88649"
           x="-90.263474"
           y="-93.253319" />
        <rect
           style="opacity:1;fill:#ffffff;fill-opacity:1;stroke:none;stroke-width:3.67554355;stroke-miterlimit:4;stroke-dasharray:none;stroke-opacity:1"
           id="rect4995-6-1"
           width="30.440628"
           height="26.88649"
           x="-122.93916"
           y="-48.005424" />
        <rect
           style="opacity:1;fill:#ffffff;fill-opacity:1;stroke:none;stroke-width:3.84518123;stroke-miterlimit:4;stroke-dasharray:none;stroke-opacity:1"
           id="rect4995-6-5-4"
           width="30.440628"
           height="29.425552"
           x="-154.6093"
           y="-101.31002" />
        <g
           transform="matrix(0.86862335,0,0,-0.86862335,-147.02112,-26.988715)"
           inkscape:label="HexagonFab_Hexagon_Module"
           id="g4615-4-8"
           style="opacity:0.35;fill:#2bc215;fill-opacity:1">
          <g
             transform="scale(0.072)"
             id="g4617-3-30"
             style="fill:#2bc215;fill-opacity:1">
            <g
               id="g4619-0-6"
               style="fill:#2bc215;fill-opacity:1">
              <g
                 clip-path="url(#clipPath4625-8-9)"
                 id="g4621-3-40"
                 style="fill:#2bc215;fill-opacity:1">
                <path
                   inkscape:connector-curvature="0"
                   id="path4637-9-1"
                   style="fill:#2bc215;fill-opacity:1;fill-rule:nonzero;stroke:none"
                   d="M 598.816,0 C 560.77,0 522.547,13.2305 491.613,40.1953 443.891,81.793 426.332,145 440.535,202.496 c 0,0 -23.851,70.094 -68.844,98.945 -44.98,28.848 -120.203,56.598 -120.203,56.598 l -0.402,0.07 c -18.602,-9.636 -38.957,-14.504 -59.352,-14.504 -30.156,0 -60.398,10.641 -85.164,32.231 -54.2419,47.281 -59.8825,129.582 -12.6012,183.824 8.8362,10.133 19.1722,18 30.0512,24.711 7.668,19.559 33.867,90.074 30.855,134.063 -3.281,47.863 -46.293,132.539 -52.266,144.101 -19.3629,5.535 -37.8707,15.153 -54.0504,29.258 -58.9531,51.387 -65.082,140.827 -13.6992,199.777 28,32.12 67.2926,48.56 106.8006,48.56 33,0 66.156,-11.48 92.988,-34.86 8.161,-7.11 15.2,-15.01 21.321,-23.39 27.539,4.66 89.539,16.67 120.265,34.76 31.016,18.26 80.664,68.73 101.774,90.88 2.902,37.24 17.172,73.91 43.601,104.23 35.621,40.86 85.614,61.78 135.875,61.78 41.989,0 84.161,-14.6 118.293,-44.35 55.977,-48.8 74.477,-124.56 53.102,-191.04 11.246,-18.37 43.418,-67.64 78.871,-91.96 44.066,-30.23 97.27,-32.68 97.27,-32.68 22.03,14.43 47.19,21.67 72.48,21.67 31.48,0 63.14,-11.24 89.08,-33.85 56.36,-49.129 62.23,-134.648 13.09,-191.007 -9.81,-11.258 -32.01,-26.918 -32.01,-26.918 0,0 -40.21,-96.118 -35.96,-158.157 4.25,-62.023 39.08,-126.519 39.08,-126.519 46.87,-40.867 51.74,-111.977 10.89,-158.852 -22.15,-25.402 -53.08,-38.301 -84.26,-38.301 -23.26,0 -46.65,7.188 -66.59,21.723 C 987.531,318.691 915.793,303.543 873.641,283.605 822.816,259.57 759.762,190.789 759.762,190.789 h -0.016 C 767.707,144.145 755.461,94.4375 721.938,55.9844 689.66,18.9531 644.363,0 598.816,0 m 0.192,326.477 c 38.027,0 76.222,-13.215 107.144,-40.172 9.813,-8.559 17.965,-17.539 25.219,-27.684 0,0 99.016,15.746 141.711,41.477 36.555,22.027 85.504,62.785 98.863,74.097 -14.132,37.528 -8.23,81.285 19.965,113.633 13.29,15.231 28.96,25.731 46.77,31.969 0,0 57.22,52.613 53.7,104.058 -3.53,51.434 -54.99,144.102 -54.99,144.102 0,0 -32.44,14.297 -50.062,30.981 -70.461,67.062 -35.414,152.914 -35.672,160.296 -0.301,1.297 -24.101,43.466 -55.461,71.136 -30.203,26.66 -114.113,27.15 -120.25,27.15 -0.234,0 -0.355,0 -0.355,0 l 0.137,0.25 c -33.657,-29.43 -76.055,-44.46 -118.641,-44.46 -41.895,0 -83.973,14.56 -118.055,44.27 -19.797,17.26 -34.769,37.94 -45.093,60.33 -3.196,0.08 -6.938,0.14 -11.125,0.14 -27.516,0 -73.891,-2.44 -105.786,-17.03 -35.797,-16.37 -77.66,-56.25 -96.574,-75.39 8.047,-41.388 -2.262,-85.9 -32.113,-120.146 -11.59,-13.293 -25.172,-23.75 -39.84,-31.617 -7.516,-18.906 -38.035,-99.59 -34.305,-154.039 3.25,-47.348 24.258,-96.039 34.047,-116.48 24.914,-3.067 49.207,-13.36 69.551,-31.086 49.527,-43.188 58.012,-115.332 23.195,-168.879 10.383,-12.207 53.594,-62.445 81.758,-85.789 26.172,-21.676 84.418,-31.563 105.332,-34.504 31,28.723 70.871,43.387 110.93,43.387" />
              </g>
            </g>
          </g>
        </g>
      </g>
    </g>
  </g>
</svg>
