<?xml version="1.0" encoding="UTF-8" standalone="no"?>
<!-- Created with Inkscape (http://www.inkscape.org/) -->

<svg
   xmlns:dc="http://purl.org/dc/elements/1.1/"
   xmlns:cc="http://creativecommons.org/ns#"
   xmlns:rdf="http://www.w3.org/1999/02/22-rdf-syntax-ns#"
   xmlns:svg="http://www.w3.org/2000/svg"
   xmlns="http://www.w3.org/2000/svg"
   xmlns:sodipodi="http://sodipodi.sourceforge.net/DTD/sodipodi-0.dtd"
   xmlns:inkscape="http://www.inkscape.org/namespaces/inkscape"
   width="87.053993mm"
   height="91.771553mm"
   viewBox="0 0 87.053993 91.771553"
   version="1.1"
   id="svg6582"
   inkscape:version="0.92.2 5c3e80d, 2017-08-06"
   sodipodi:docname="hBN.svg">
  <defs
     id="defs6576">
    <clipPath
       id="clipPath4625-8-9"
       clipPathUnits="userSpaceOnUse">
      <path
         inkscape:connector-curvature="0"
         id="path4623-7-3"
         d="M 598.816,0 C 560.77,0 522.547,13.2305 491.613,40.1953 443.891,81.793 426.332,145 440.535,202.496 c 0,0 -23.851,70.094 -68.844,98.945 -44.98,28.848 -120.203,56.598 -120.203,56.598 l -0.402,0.07 c -18.602,-9.636 -38.957,-14.504 -59.352,-14.504 -30.156,0 -60.398,10.641 -85.164,32.231 -54.2419,47.281 -59.8825,129.582 -12.6012,183.824 8.8362,10.133 19.1722,18 30.0512,24.711 7.668,19.559 33.867,90.074 30.855,134.063 -3.281,47.863 -46.293,132.539 -52.266,144.101 -19.3629,5.535 -37.8707,15.153 -54.0504,29.258 -58.9531,51.387 -65.082,140.827 -13.6992,199.777 28,32.12 67.2926,48.56 106.8006,48.56 33,0 66.156,-11.48 92.988,-34.86 8.161,-7.11 15.2,-15.01 21.321,-23.39 27.539,4.66 89.539,16.67 120.265,34.76 31.016,18.26 80.664,68.73 101.774,90.88 2.902,37.24 17.172,73.91 43.601,104.23 35.621,40.86 85.614,61.78 135.875,61.78 41.989,0 84.161,-14.6 118.293,-44.35 55.977,-48.8 74.477,-124.56 53.102,-191.04 11.246,-18.37 43.418,-67.64 78.871,-91.96 44.066,-30.23 97.27,-32.68 97.27,-32.68 22.03,14.43 47.19,21.67 72.48,21.67 31.48,0 63.14,-11.24 89.08,-33.85 56.36,-49.129 62.23,-134.648 13.09,-191.007 -9.81,-11.258 -32.01,-26.918 -32.01,-26.918 0,0 -40.21,-96.118 -35.96,-158.157 4.25,-62.023 39.08,-126.519 39.08,-126.519 46.87,-40.867 51.74,-111.977 10.89,-158.852 -22.15,-25.402 -53.08,-38.301 -84.26,-38.301 -23.26,0 -46.65,7.188 -66.59,21.723 C 987.531,318.691 915.793,303.543 873.641,283.605 822.816,259.57 759.762,190.789 759.762,190.789 h -0.016 C 767.707,144.145 755.461,94.4375 721.938,55.9844 689.66,18.9531 644.363,0 598.816,0 m 0.192,326.477 c 38.027,0 76.222,-13.215 107.144,-40.172 9.813,-8.559 17.965,-17.539 25.219,-27.684 0,0 99.016,15.746 141.711,41.477 36.555,22.027 85.504,62.785 98.863,74.097 -14.132,37.528 -8.23,81.285 19.965,113.633 13.29,15.231 28.96,25.731 46.77,31.969 0,0 57.22,52.613 53.7,104.058 -3.53,51.434 -54.99,144.102 -54.99,144.102 0,0 -32.44,14.297 -50.062,30.981 -70.461,67.062 -35.414,152.914 -35.672,160.296 -0.301,1.297 -24.101,43.466 -55.461,71.136 -30.203,26.66 -114.113,27.15 -120.25,27.15 -0.234,0 -0.355,0 -0.355,0 l 0.137,0.25 c -33.657,-29.43 -76.055,-44.46 -118.641,-44.46 -41.895,0 -83.973,14.56 -118.055,44.27 -19.797,17.26 -34.769,37.94 -45.093,60.33 -3.196,0.08 -6.938,0.14 -11.125,0.14 -27.516,0 -73.891,-2.44 -105.786,-17.03 -35.797,-16.37 -77.66,-56.25 -96.574,-75.39 8.047,-41.388 -2.262,-85.9 -32.113,-120.146 -11.59,-13.293 -25.172,-23.75 -39.84,-31.617 -7.516,-18.906 -38.035,-99.59 -34.305,-154.039 3.25,-47.348 24.258,-96.039 34.047,-116.48 24.914,-3.067 49.207,-13.36 69.551,-31.086 49.527,-43.188 58.012,-115.332 23.195,-168.879 10.383,-12.207 53.594,-62.445 81.758,-85.789 26.172,-21.676 84.418,-31.563 105.332,-34.504 31,28.723 70.871,43.387 110.93,43.387" />
    </clipPath>
    <clipPath
       id="clipPath4625-8-4-2"
       clipPathUnits="userSpaceOnUse">
      <path
         inkscape:connector-curvature="0"
         id="path4623-7-0-3"
         d="M 598.816,0 C 560.77,0 522.547,13.2305 491.613,40.1953 443.891,81.793 426.332,145 440.535,202.496 c 0,0 -23.851,70.094 -68.844,98.945 -44.98,28.848 -120.203,56.598 -120.203,56.598 l -0.402,0.07 c -18.602,-9.636 -38.957,-14.504 -59.352,-14.504 -30.156,0 -60.398,10.641 -85.164,32.231 -54.2419,47.281 -59.8825,129.582 -12.6012,183.824 8.8362,10.133 19.1722,18 30.0512,24.711 7.668,19.559 33.867,90.074 30.855,134.063 -3.281,47.863 -46.293,132.539 -52.266,144.101 -19.3629,5.535 -37.8707,15.153 -54.0504,29.258 -58.9531,51.387 -65.082,140.827 -13.6992,199.777 28,32.12 67.2926,48.56 106.8006,48.56 33,0 66.156,-11.48 92.988,-34.86 8.161,-7.11 15.2,-15.01 21.321,-23.39 27.539,4.66 89.539,16.67 120.265,34.76 31.016,18.26 80.664,68.73 101.774,90.88 2.902,37.24 17.172,73.91 43.601,104.23 35.621,40.86 85.614,61.78 135.875,61.78 41.989,0 84.161,-14.6 118.293,-44.35 55.977,-48.8 74.477,-124.56 53.102,-191.04 11.246,-18.37 43.418,-67.64 78.871,-91.96 44.066,-30.23 97.27,-32.68 97.27,-32.68 22.03,14.43 47.19,21.67 72.48,21.67 31.48,0 63.14,-11.24 89.08,-33.85 56.36,-49.129 62.23,-134.648 13.09,-191.007 -9.81,-11.258 -32.01,-26.918 -32.01,-26.918 0,0 -40.21,-96.118 -35.96,-158.157 4.25,-62.023 39.08,-126.519 39.08,-126.519 46.87,-40.867 51.74,-111.977 10.89,-158.852 -22.15,-25.402 -53.08,-38.301 -84.26,-38.301 -23.26,0 -46.65,7.188 -66.59,21.723 C 987.531,318.691 915.793,303.543 873.641,283.605 822.816,259.57 759.762,190.789 759.762,190.789 h -0.016 C 767.707,144.145 755.461,94.4375 721.938,55.9844 689.66,18.9531 644.363,0 598.816,0 m 0.192,326.477 c 38.027,0 76.222,-13.215 107.144,-40.172 9.813,-8.559 17.965,-17.539 25.219,-27.684 0,0 99.016,15.746 141.711,41.477 36.555,22.027 85.504,62.785 98.863,74.097 -14.132,37.528 -8.23,81.285 19.965,113.633 13.29,15.231 28.96,25.731 46.77,31.969 0,0 57.22,52.613 53.7,104.058 -3.53,51.434 -54.99,144.102 -54.99,144.102 0,0 -32.44,14.297 -50.062,30.981 -70.461,67.062 -35.414,152.914 -35.672,160.296 -0.301,1.297 -24.101,43.466 -55.461,71.136 -30.203,26.66 -114.113,27.15 -120.25,27.15 -0.234,0 -0.355,0 -0.355,0 l 0.137,0.25 c -33.657,-29.43 -76.055,-44.46 -118.641,-44.46 -41.895,0 -83.973,14.56 -118.055,44.27 -19.797,17.26 -34.769,37.94 -45.093,60.33 -3.196,0.08 -6.938,0.14 -11.125,0.14 -27.516,0 -73.891,-2.44 -105.786,-17.03 -35.797,-16.37 -77.66,-56.25 -96.574,-75.39 8.047,-41.388 -2.262,-85.9 -32.113,-120.146 -11.59,-13.293 -25.172,-23.75 -39.84,-31.617 -7.516,-18.906 -38.035,-99.59 -34.305,-154.039 3.25,-47.348 24.258,-96.039 34.047,-116.48 24.914,-3.067 49.207,-13.36 69.551,-31.086 49.527,-43.188 58.012,-115.332 23.195,-168.879 10.383,-12.207 53.594,-62.445 81.758,-85.789 26.172,-21.676 84.418,-31.563 105.332,-34.504 31,28.723 70.871,43.387 110.93,43.387" />
    </clipPath>
  </defs>
  <sodipodi:namedview
     id="base"
     pagecolor="#ffffff"
     bordercolor="#666666"
     borderopacity="1.0"
     inkscape:pageopacity="0.0"
     inkscape:pageshadow="2"
     inkscape:zoom="0.98994949"
     inkscape:cx="289.31017"
     inkscape:cy="122.7799"
     inkscape:document-units="mm"
     inkscape:current-layer="layer1"
     showgrid="false"
     inkscape:window-width="1440"
     inkscape:window-height="803"
     inkscape:window-x="30"
     inkscape:window-y="15"
     inkscape:window-maximized="0" />
  <metadata
     id="metadata6579">
    <rdf:RDF>
      <cc:Work
         rdf:about="">
        <dc:format>image/svg+xml</dc:format>
        <dc:type
           rdf:resource="http://purl.org/dc/dcmitype/StillImage" />
        <dc:title></dc:title>
      </cc:Work>
    </rdf:RDF>
  </metadata>
  <g
     inkscape:label="Layer 1"
     inkscape:groupmode="layer"
     id="layer1"
     transform="translate(-64.551712,-110.54683)">
    <g
       id="g145">
      <g
         style="opacity:0.61400003;fill:#f81113;fill-opacity:1"
         id="g4615-4-5-20"
         inkscape:label="HexagonFab_Hexagon_Module"
         transform="matrix(0.86862335,0,0,-0.86862335,72.139892,196.44861)">
        <g
           style="fill:#f81113;fill-opacity:1"
           id="g4617-3-3-6"
           transform="scale(0.072)">
          <g
             style="fill:#f81113;fill-opacity:1"
             id="g4619-0-9-6">
            <g
               style="fill:#f81113;fill-opacity:1"
               id="g4621-3-2-2"
               clip-path="url(#clipPath4625-8-4-2)">
              <path
                 d="M 598.816,0 C 560.77,0 522.547,13.2305 491.613,40.1953 443.891,81.793 426.332,145 440.535,202.496 c 0,0 -23.851,70.094 -68.844,98.945 -44.98,28.848 -120.203,56.598 -120.203,56.598 l -0.402,0.07 c -18.602,-9.636 -38.957,-14.504 -59.352,-14.504 -30.156,0 -60.398,10.641 -85.164,32.231 -54.2419,47.281 -59.8825,129.582 -12.6012,183.824 8.8362,10.133 19.1722,18 30.0512,24.711 7.668,19.559 33.867,90.074 30.855,134.063 -3.281,47.863 -46.293,132.539 -52.266,144.101 -19.3629,5.535 -37.8707,15.153 -54.0504,29.258 -58.9531,51.387 -65.082,140.827 -13.6992,199.777 28,32.12 67.2926,48.56 106.8006,48.56 33,0 66.156,-11.48 92.988,-34.86 8.161,-7.11 15.2,-15.01 21.321,-23.39 27.539,4.66 89.539,16.67 120.265,34.76 31.016,18.26 80.664,68.73 101.774,90.88 2.902,37.24 17.172,73.91 43.601,104.23 35.621,40.86 85.614,61.78 135.875,61.78 41.989,0 84.161,-14.6 118.293,-44.35 55.977,-48.8 74.477,-124.56 53.102,-191.04 11.246,-18.37 43.418,-67.64 78.871,-91.96 44.066,-30.23 97.27,-32.68 97.27,-32.68 22.03,14.43 47.19,21.67 72.48,21.67 31.48,0 63.14,-11.24 89.08,-33.85 56.36,-49.129 62.23,-134.648 13.09,-191.007 -9.81,-11.258 -32.01,-26.918 -32.01,-26.918 0,0 -40.21,-96.118 -35.96,-158.157 4.25,-62.023 39.08,-126.519 39.08,-126.519 46.87,-40.867 51.74,-111.977 10.89,-158.852 -22.15,-25.402 -53.08,-38.301 -84.26,-38.301 -23.26,0 -46.65,7.188 -66.59,21.723 C 987.531,318.691 915.793,303.543 873.641,283.605 822.816,259.57 759.762,190.789 759.762,190.789 h -0.016 C 767.707,144.145 755.461,94.4375 721.938,55.9844 689.66,18.9531 644.363,0 598.816,0 m 0.192,326.477 c 38.027,0 76.222,-13.215 107.144,-40.172 9.813,-8.559 17.965,-17.539 25.219,-27.684 0,0 99.016,15.746 141.711,41.477 36.555,22.027 85.504,62.785 98.863,74.097 -14.132,37.528 -8.23,81.285 19.965,113.633 13.29,15.231 28.96,25.731 46.77,31.969 0,0 57.22,52.613 53.7,104.058 -3.53,51.434 -54.99,144.102 -54.99,144.102 0,0 -32.44,14.297 -50.062,30.981 -70.461,67.062 -35.414,152.914 -35.672,160.296 -0.301,1.297 -24.101,43.466 -55.461,71.136 -30.203,26.66 -114.113,27.15 -120.25,27.15 -0.234,0 -0.355,0 -0.355,0 l 0.137,0.25 c -33.657,-29.43 -76.055,-44.46 -118.641,-44.46 -41.895,0 -83.973,14.56 -118.055,44.27 -19.797,17.26 -34.769,37.94 -45.093,60.33 -3.196,0.08 -6.938,0.14 -11.125,0.14 -27.516,0 -73.891,-2.44 -105.786,-17.03 -35.797,-16.37 -77.66,-56.25 -96.574,-75.39 8.047,-41.388 -2.262,-85.9 -32.113,-120.146 -11.59,-13.293 -25.172,-23.75 -39.84,-31.617 -7.516,-18.906 -38.035,-99.59 -34.305,-154.039 3.25,-47.348 24.258,-96.039 34.047,-116.48 24.914,-3.067 49.207,-13.36 69.551,-31.086 49.527,-43.188 58.012,-115.332 23.195,-168.879 10.383,-12.207 53.594,-62.445 81.758,-85.789 26.172,-21.676 84.418,-31.563 105.332,-34.504 31,28.723 70.871,43.387 110.93,43.387"
                 style="fill:#f81113;fill-opacity:1;fill-rule:nonzero;stroke:none"
                 id="path4637-9-2-6"
                 inkscape:connector-curvature="0" />
            </g>
          </g>
        </g>
      </g>
      <rect
         y="130.18401"
         x="128.89754"
         height="26.88649"
         width="22.708168"
         id="rect4995-0"
         style="opacity:1;fill:#ffffff;fill-opacity:1;stroke:none;stroke-width:3.17457676;stroke-miterlimit:4;stroke-dasharray:none;stroke-opacity:1" />
      <rect
         y="175.4319"
         x="96.221848"
         height="26.88649"
         width="30.440628"
         id="rect4995-6-1"
         style="opacity:1;fill:#ffffff;fill-opacity:1;stroke:none;stroke-width:3.67554355;stroke-miterlimit:4;stroke-dasharray:none;stroke-opacity:1" />
      <rect
         y="122.1273"
         x="64.551712"
         height="29.425552"
         width="30.440628"
         id="rect4995-6-5-4"
         style="opacity:1;fill:#ffffff;fill-opacity:1;stroke:none;stroke-width:3.84518123;stroke-miterlimit:4;stroke-dasharray:none;stroke-opacity:1" />
      <g
         style="opacity:0.35;fill:#2bc215;fill-opacity:1"
         id="g4615-4-8"
         inkscape:label="HexagonFab_Hexagon_Module"
         transform="matrix(0.86862335,0,0,-0.86862335,72.139892,196.44861)">
        <g
           style="fill:#2bc215;fill-opacity:1"
           id="g4617-3-30"
           transform="scale(0.072)">
          <g
             style="fill:#2bc215;fill-opacity:1"
             id="g4619-0-6">
            <g
               style="fill:#2bc215;fill-opacity:1"
               id="g4621-3-40"
               clip-path="url(#clipPath4625-8-9)">
              <path
                 d="M 598.816,0 C 560.77,0 522.547,13.2305 491.613,40.1953 443.891,81.793 426.332,145 440.535,202.496 c 0,0 -23.851,70.094 -68.844,98.945 -44.98,28.848 -120.203,56.598 -120.203,56.598 l -0.402,0.07 c -18.602,-9.636 -38.957,-14.504 -59.352,-14.504 -30.156,0 -60.398,10.641 -85.164,32.231 -54.2419,47.281 -59.8825,129.582 -12.6012,183.824 8.8362,10.133 19.1722,18 30.0512,24.711 7.668,19.559 33.867,90.074 30.855,134.063 -3.281,47.863 -46.293,132.539 -52.266,144.101 -19.3629,5.535 -37.8707,15.153 -54.0504,29.258 -58.9531,51.387 -65.082,140.827 -13.6992,199.777 28,32.12 67.2926,48.56 106.8006,48.56 33,0 66.156,-11.48 92.988,-34.86 8.161,-7.11 15.2,-15.01 21.321,-23.39 27.539,4.66 89.539,16.67 120.265,34.76 31.016,18.26 80.664,68.73 101.774,90.88 2.902,37.24 17.172,73.91 43.601,104.23 35.621,40.86 85.614,61.78 135.875,61.78 41.989,0 84.161,-14.6 118.293,-44.35 55.977,-48.8 74.477,-124.56 53.102,-191.04 11.246,-18.37 43.418,-67.64 78.871,-91.96 44.066,-30.23 97.27,-32.68 97.27,-32.68 22.03,14.43 47.19,21.67 72.48,21.67 31.48,0 63.14,-11.24 89.08,-33.85 56.36,-49.129 62.23,-134.648 13.09,-191.007 -9.81,-11.258 -32.01,-26.918 -32.01,-26.918 0,0 -40.21,-96.118 -35.96,-158.157 4.25,-62.023 39.08,-126.519 39.08,-126.519 46.87,-40.867 51.74,-111.977 10.89,-158.852 -22.15,-25.402 -53.08,-38.301 -84.26,-38.301 -23.26,0 -46.65,7.188 -66.59,21.723 C 987.531,318.691 915.793,303.543 873.641,283.605 822.816,259.57 759.762,190.789 759.762,190.789 h -0.016 C 767.707,144.145 755.461,94.4375 721.938,55.9844 689.66,18.9531 644.363,0 598.816,0 m 0.192,326.477 c 38.027,0 76.222,-13.215 107.144,-40.172 9.813,-8.559 17.965,-17.539 25.219,-27.684 0,0 99.016,15.746 141.711,41.477 36.555,22.027 85.504,62.785 98.863,74.097 -14.132,37.528 -8.23,81.285 19.965,113.633 13.29,15.231 28.96,25.731 46.77,31.969 0,0 57.22,52.613 53.7,104.058 -3.53,51.434 -54.99,144.102 -54.99,144.102 0,0 -32.44,14.297 -50.062,30.981 -70.461,67.062 -35.414,152.914 -35.672,160.296 -0.301,1.297 -24.101,43.466 -55.461,71.136 -30.203,26.66 -114.113,27.15 -120.25,27.15 -0.234,0 -0.355,0 -0.355,0 l 0.137,0.25 c -33.657,-29.43 -76.055,-44.46 -118.641,-44.46 -41.895,0 -83.973,14.56 -118.055,44.27 -19.797,17.26 -34.769,37.94 -45.093,60.33 -3.196,0.08 -6.938,0.14 -11.125,0.14 -27.516,0 -73.891,-2.44 -105.786,-17.03 -35.797,-16.37 -77.66,-56.25 -96.574,-75.39 8.047,-41.388 -2.262,-85.9 -32.113,-120.146 -11.59,-13.293 -25.172,-23.75 -39.84,-31.617 -7.516,-18.906 -38.035,-99.59 -34.305,-154.039 3.25,-47.348 24.258,-96.039 34.047,-116.48 24.914,-3.067 49.207,-13.36 69.551,-31.086 49.527,-43.188 58.012,-115.332 23.195,-168.879 10.383,-12.207 53.594,-62.445 81.758,-85.789 26.172,-21.676 84.418,-31.563 105.332,-34.504 31,28.723 70.871,43.387 110.93,43.387"
                 style="fill:#2bc215;fill-opacity:1;fill-rule:nonzero;stroke:none"
                 id="path4637-9-1"
                 inkscape:connector-curvature="0" />
            </g>
          </g>
        </g>
      </g>
    </g>
  </g>
</svg>
